<?xml version="1.0" encoding="UTF-8"?>
<svg version="1.1" xmlns="http://www.w3.org/2000/svg" width="1024" height="1024">
<path d="M0 0 C1.1859375 0.00257813 2.371875 0.00515625 3.59375 0.0078125 C4.7796875 0.00523437 5.965625 0.00265625 7.1875 0 C10.09375 0.1328125 10.09375 0.1328125 11.09375 1.1328125 C12.90841766 1.31467834 14.72943422 1.43359481 16.55078125 1.52734375 C17.71319336 1.59381104 18.87560547 1.66027832 20.07324219 1.72875977 C21.97058105 1.83595337 21.97058105 1.83595337 23.90625 1.9453125 C37.79890863 2.80385732 51.44640782 4.58658413 65.20532227 6.70776367 C70.81043856 7.53258892 76.41629552 8.31595619 82.09375 8.1328125 C82.09375 8.7928125 82.09375 9.4528125 82.09375 10.1328125 C82.92132812 10.34035156 83.74890625 10.54789063 84.6015625 10.76171875 C94.46411359 13.3072368 104.14153873 16.3158242 113.83203125 19.44921875 C122.98557325 22.57102742 122.98557325 22.57102742 132.40625 24.5703125 C135.09375 25.1328125 135.09375 25.1328125 137.34765625 26.96484375 C140.33922799 29.32661091 143.25417762 30.80583473 146.71875 32.3828125 C148.40871094 33.16398437 148.40871094 33.16398437 150.1328125 33.9609375 C153.02792771 35.31681463 153.02792771 35.31681463 156.09375 35.1328125 C157.12031511 36.10552216 158.1176001 37.10951813 159.09375 38.1328125 C160.98400632 39.30329038 160.98400632 39.30329038 163.0859375 40.33203125 C163.86775391 40.73301025 164.64957031 41.13398926 165.45507812 41.54711914 C166.28458984 41.96727295 167.11410156 42.38742676 167.96875 42.8203125 C175.06502175 46.47300371 181.90542672 50.33307452 188.625 54.63671875 C191.08806144 56.25382336 191.08806144 56.25382336 194.09375 57.1328125 C195.78362797 58.43660236 197.44555953 59.77670641 199.09375 61.1328125 C200.25437873 62.01537746 201.42011782 62.89124692 202.58984375 63.76171875 C203.22349854 64.23335449 203.85715332 64.70499023 204.51000977 65.19091797 C205.17701904 65.68736816 205.84402832 66.18381836 206.53125 66.6953125 C209.3887552 68.83672395 212.24204158 70.98368924 215.09375 73.1328125 C215.71024414 73.5963916 216.32673828 74.0599707 216.96191406 74.53759766 C225.43014562 80.9368064 233.24132026 87.8309146 240.9140625 95.1640625 C242.74070033 96.90840009 244.4787819 98.41508669 246.5234375 99.9140625 C247.04164063 100.31625 247.55984375 100.7184375 248.09375 101.1328125 C248.09375 101.7928125 248.09375 102.4528125 248.09375 103.1328125 C249.08375 103.4628125 250.07375 103.7928125 251.09375 104.1328125 C252.53125 105.55859375 252.53125 105.55859375 254.09375 107.4453125 C257.03462085 110.9275989 260.0883325 114.25736337 263.21875 117.5703125 C270.09084066 124.96890846 276.10257512 133.01653041 282.09375 141.1328125 C282.57295898 141.78137207 283.05216797 142.42993164 283.54589844 143.09814453 C288.35486902 149.63963416 292.9386943 156.20132251 296.83984375 163.33984375 C298.04986032 165.44940442 298.04986032 165.44940442 301.09375 166.1328125 C301.19171875 166.84308594 301.2896875 167.55335938 301.390625 168.28515625 C302.20666199 171.59010607 303.5472029 173.80045614 305.34375 176.6953125 C310.55081038 185.34694845 314.56815026 194.60056988 318.70019531 203.79711914 C319.23999023 204.98684326 319.77978516 206.17656738 320.3359375 207.40234375 C320.8191748 208.48104736 321.30241211 209.55975098 321.80029297 210.67114258 C322.85255963 213.2554526 322.85255963 213.2554526 325.09375 214.1328125 C325.45851368 216.46143935 325.78645421 218.79590753 326.09375 221.1328125 C326.72961153 223.28413018 327.42349407 225.4189698 328.16796875 227.53515625 C328.58546387 228.74292725 329.00295898 229.95069824 329.43310547 231.19506836 C329.65335388 231.82669891 329.87360229 232.45832947 330.1005249 233.10910034 C339.25398708 259.48080514 347.54048929 287.98823733 347.09375 316.1328125 C347.75375 316.4628125 348.41375 316.7928125 349.09375 317.1328125 C349.53741277 395.51778518 336.89943068 478.1607651 286.21289062 541.38208008 C284.82444991 543.20778173 284.82444991 543.20778173 285.09375 546.1328125 C284.10375 546.4628125 283.11375 546.7928125 282.09375 547.1328125 C280.46610293 549.0807006 278.95932294 551.0223949 277.46875 553.0703125 C273.64224884 558.19242276 269.62508157 562.98919151 265.28515625 567.69140625 C263.06906003 570.16031915 261.02169025 572.71480515 258.96875 575.3203125 C250.73648914 585.49127802 241.1266121 594.74971357 231.09375 603.1328125 C229.75763672 604.30263672 229.75763672 604.30263672 228.39453125 605.49609375 C215.84371205 616.42953934 202.39310464 626.59677116 188.09375 635.1328125 C187.52108398 635.4819873 186.94841797 635.83116211 186.35839844 636.19091797 C173.03087171 644.31570202 159.25978134 651.71926602 145.21435547 658.52880859 C144.3070166 658.96918457 143.39967773 659.40956055 142.46484375 659.86328125 C141.64814209 660.25281982 140.83144043 660.6423584 139.98999023 661.04370117 C137.93357376 661.99244262 137.93357376 661.99244262 137.09375 664.1328125 C135.18374777 664.36496747 133.27290748 664.5917979 131.35888672 664.78808594 C127.57543064 665.36388244 124.19200996 666.83898728 120.65625 668.2578125 C93.8250545 678.49072293 64.73729896 684.90947251 36.09375 687.1328125 C34.876875 687.24238281 33.66 687.35195313 32.40625 687.46484375 C-17.81071798 691.38804437 -67.25314707 683.37076706 -114.62548828 666.91992188 C-118.37516858 665.62587678 -122.1410258 664.38074259 -125.90625 663.1328125 C-126.89625 662.8028125 -127.88625 662.4728125 -128.90625 662.1328125 C-128.90625 661.4728125 -128.90625 660.8128125 -128.90625 660.1328125 C-129.48632812 659.93945312 -130.06640625 659.74609375 -130.6640625 659.546875 C-131.83582031 659.15628906 -131.83582031 659.15628906 -133.03125 658.7578125 C-133.85109375 658.48710938 -134.6709375 658.21640625 -135.515625 657.9375 C-137.44928728 657.28662675 -139.36799298 656.59142621 -141.28125 655.8828125 C-143.9813602 654.84413595 -143.9813602 654.84413595 -146.90625 656.1328125 C-146.9983374 655.51784912 -147.0904248 654.90288574 -147.18530273 654.26928711 C-147.71375229 652.05396407 -147.71375229 652.05396407 -149.45336914 650.93188477 C-150.10942139 650.60760498 -150.76547363 650.2833252 -151.44140625 649.94921875 C-152.16908203 649.57861328 -152.89675781 649.20800781 -153.64648438 648.82617188 C-154.41283203 648.45298828 -155.17917969 648.07980469 -155.96875 647.6953125 C-161.81536933 644.77455149 -167.42328733 641.69706455 -172.90625 638.1328125 C-173.56625 638.7928125 -174.22625 639.4528125 -174.90625 640.1328125 C-174.97585938 639.53597656 -175.04546875 638.93914063 -175.1171875 638.32421875 C-176.21512838 635.27498689 -177.74422798 634.67757741 -180.53125 633.0703125 C-186.20486666 629.64978346 -191.48574755 625.84708006 -196.77783203 621.86499023 C-199.72644299 619.66270981 -202.51620147 617.61939991 -205.90625 616.1328125 C-206.56625 615.8028125 -207.22625 615.4728125 -207.90625 615.1328125 C-207.90625 614.4728125 -207.90625 613.8128125 -207.90625 613.1328125 C-209.93665402 611.45319571 -211.97099513 609.87516747 -214.09375 608.3203125 C-218.37297121 605.16695105 -222.20200194 601.97146724 -225.90625 598.1328125 C-227.44295325 596.60309506 -228.98231939 595.07605082 -230.5234375 593.55078125 C-232.2761104 591.80736077 -234.02871256 590.06386915 -235.78125 588.3203125 C-236.65394531 587.45599609 -237.52664063 586.59167969 -238.42578125 585.70117188 C-245.00255023 579.1491276 -251.13386258 572.40174481 -256.90625 565.1328125 C-257.56625 564.4728125 -258.22625 563.8128125 -258.90625 563.1328125 C-259.87746748 561.85080542 -260.83438624 560.55791041 -261.78125 559.2578125 C-264.79876393 555.20509306 -267.67746248 551.95200418 -271.90625 549.1328125 C-272.03386719 548.4109375 -272.16148437 547.6890625 -272.29296875 546.9453125 C-273.14705692 543.02847505 -275.36479571 540.28488863 -277.71875 537.1328125 C-278.37713867 536.22789062 -278.37713867 536.22789062 -279.04882812 535.3046875 C-280.31899368 533.5683542 -281.60769123 531.84798158 -282.90625 530.1328125 C-283.98712891 528.70388672 -283.98712891 528.70388672 -285.08984375 527.24609375 C-287.03498577 524.98303605 -287.98540406 524.44576028 -290.90625 524.1328125 C-290.90625 522.8128125 -290.90625 521.4928125 -290.90625 520.1328125 C-290.24625 520.1328125 -289.58625 520.1328125 -288.90625 520.1328125 C-289.525 519.0190625 -290.14375 517.9053125 -290.78125 516.7578125 C-291.30332031 515.81808594 -291.30332031 515.81808594 -291.8359375 514.859375 C-292.91522274 512.9715511 -292.91522274 512.9715511 -294.90625 511.1328125 C-295.5990784 509.85644743 -296.24457438 508.55400888 -296.859375 507.23828125 C-297.22877197 506.45316162 -297.59816895 505.66804199 -297.97875977 504.85913086 C-298.36733154 504.0213208 -298.75590332 503.18351074 -299.15625 502.3203125 C-299.55448975 501.46896729 -299.95272949 500.61762207 -300.36303711 499.74047852 C-301.1676028 498.01863334 -301.97027058 496.29589999 -302.77099609 494.57226562 C-303.78374847 492.39604589 -304.80549333 490.22442776 -305.83203125 488.0546875 C-306.37214844 486.90484375 -306.91226563 485.755 -307.46875 484.5703125 C-308.18224609 483.05244141 -308.18224609 483.05244141 -308.91015625 481.50390625 C-309.90625 479.1328125 -309.90625 479.1328125 -309.90625 477.1328125 C-311.22625 477.1328125 -312.54625 477.1328125 -313.90625 477.1328125 C-314.23625 477.7928125 -314.56625 478.4528125 -314.90625 479.1328125 C-314.90625 477.1528125 -314.90625 475.1728125 -314.90625 473.1328125 C-314.24625 473.4628125 -313.58625 473.7928125 -312.90625 474.1328125 C-313.23625 474.7928125 -313.56625 475.4528125 -313.90625 476.1328125 C-312.91625 476.1328125 -311.92625 476.1328125 -310.90625 476.1328125 C-313.54625 469.5328125 -316.18625 462.9328125 -318.90625 456.1328125 C-319.56625 456.1328125 -320.22625 456.1328125 -320.90625 456.1328125 C-321.00550781 454.87726563 -321.10476563 453.62171875 -321.20703125 452.328125 C-321.83832515 446.67181981 -323.44727743 441.43906225 -325.09375 436.0078125 C-328.0492854 425.9049894 -330.33164186 415.7788005 -332.28125 405.4453125 C-332.4081723 404.7729657 -332.5350946 404.1006189 -332.66586304 403.40789795 C-333.62974303 398.27218673 -334.58236077 393.13581169 -335.41650391 387.97729492 C-335.8329456 385.26528592 -335.8329456 385.26528592 -336.45117188 383.19506836 C-337.1170237 380.17765937 -337.11245831 377.22320723 -337.1875 374.13671875 C-337.21511414 373.1308799 -337.21511414 373.1308799 -337.24328613 372.10472107 C-337.30180911 369.96833728 -337.35470852 367.83187541 -337.40625 365.6953125 C-337.47423844 362.88395855 -337.54793398 360.07283685 -337.625 357.26171875 C-337.67043945 355.39108765 -337.67043945 355.39108765 -337.71679688 353.48266602 C-337.88096527 350.57988962 -338.28025617 347.96214195 -338.90625 345.1328125 C-338.96996368 343.52977623 -338.99269214 341.92443578 -338.96875 340.3203125 C-338.95972656 339.53011719 -338.95070313 338.73992187 -338.94140625 337.92578125 C-338.92980469 337.33410156 -338.91820312 336.74242187 -338.90625 336.1328125 C-338.57625 336.1328125 -338.24625 336.1328125 -337.90625 336.1328125 C-337.57625 328.5428125 -337.24625 320.9528125 -336.90625 313.1328125 C-337.56625 313.7928125 -338.22625 314.4528125 -338.90625 315.1328125 C-338.90625 312.1628125 -338.90625 309.1928125 -338.90625 306.1328125 C-337.91625 305.8028125 -336.92625 305.4728125 -335.90625 305.1328125 C-335.7611499 304.21395264 -335.6160498 303.29509277 -335.46655273 302.34838867 C-329.75047736 266.57114558 -321.52945192 232.19126262 -305.92431641 199.28369141 C-304.94893844 197.22300079 -303.99201466 195.15496082 -303.04296875 193.08203125 C-298.27919305 182.67903658 -298.27919305 182.67903658 -295.65625 178.5703125 C-293.80925913 175.64370518 -292.10231628 172.68319355 -290.46875 169.6328125 C-288.48842579 166.03166909 -286.27227782 162.8452153 -283.75390625 159.60546875 C-281.79232781 156.98035426 -279.95530837 154.29164219 -278.11987305 151.57763672 C-269.7086226 139.15202576 -260.66620529 127.66724599 -250.33984375 116.77734375 C-247.83158675 114.18900561 -247.83158675 114.18900561 -245.90625 111.1328125 C-245.24625 111.1328125 -244.58625 111.1328125 -243.90625 111.1328125 C-243.70257813 110.60300781 -243.49890625 110.07320313 -243.2890625 109.52734375 C-241.30557994 106.09266914 -238.60504287 103.57971145 -235.78125 100.8203125 C-235.19085938 100.23781738 -234.60046875 99.65532227 -233.9921875 99.05517578 C-229.76498216 94.91024335 -225.43808211 90.94290838 -220.90625 87.1328125 C-220.02453125 86.36195313 -219.1428125 85.59109375 -218.234375 84.796875 C-189.88482082 60.13804193 -157.61756686 40.4512307 -122.90625 26.1328125 C-122.90625 25.4728125 -122.90625 24.8128125 -122.90625 24.1328125 C-122.00777344 24.05417969 -121.10929688 23.97554687 -120.18359375 23.89453125 C-114.3903216 23.06319017 -108.97011313 20.86922892 -103.46875 18.9453125 C-73.24388864 8.65438898 -42.10518042 2.63314147 -10.1887207 1.47387695 C-6.40579274 1.3267946 -3.49255301 0.15960592 0 0 Z M130.09375 25.1328125 C132.07375 26.1228125 132.07375 26.1228125 134.09375 27.1328125 C133.76375 26.4728125 133.43375 25.8128125 133.09375 25.1328125 C132.10375 25.1328125 131.11375 25.1328125 130.09375 25.1328125 Z " fill="#0E1F3B" transform="translate(506.90625,167.8671875)"/>
<path d="M0 0 C0.92320038 -0.01257339 1.84640076 -0.02514679 2.7975769 -0.0381012 C69.1967421 -0.76533246 128.91162777 18.75410365 177.28125 65.2734375 C177.77254395 65.74281738 178.26383789 66.21219727 178.77001953 66.69580078 C185.49394752 73.14851151 191.58807373 79.8984061 197.28125 87.2734375 C197.90700928 88.076604 197.90700928 88.076604 198.54541016 88.89599609 C234.28125 135.03879041 234.28125 135.03879041 234.28125 156.2734375 C235.27125 156.2734375 236.26125 156.2734375 237.28125 156.2734375 C237.54292969 155.5515625 237.80460937 154.8296875 238.07421875 154.0859375 C240.99789574 147.27348625 245.82575634 141.24756407 251.28125 136.2734375 C251.61125 135.9434375 251.94125 135.6134375 252.28125 135.2734375 C263.90489663 133.56766127 275.08798282 139.63642216 284.28125 146.2734375 C292.90714928 153.90129885 292.90714928 153.90129885 293.625 158.453125 C294.60316572 175.3264836 278.34183585 189.78923353 268.23974609 202.12011719 C264.46417859 206.75150944 260.83701586 211.47176991 257.28125 216.2734375 C251.6463112 223.88093364 245.74040494 231.24745688 239.70874023 238.54345703 C238.76218976 239.6905849 237.82150712 240.84258163 236.88696289 241.99951172 C233.40599121 246.27633692 230.71079195 248.50621683 225.23828125 249.73046875 C217.1229186 250.53248951 210.65531118 246.37599717 203.79541016 242.63037109 C200.98992342 241.11620375 198.1604833 239.65490106 195.32421875 238.19921875 C183.68259858 232.22033912 172.14391759 226.09010017 160.74560547 219.66015625 C157.92971793 218.0756267 155.10773186 216.50227168 152.28515625 214.9296875 C142.40507371 209.42163018 132.5359549 203.89295455 122.71875 198.2734375 C121.97633057 197.85328369 121.23391113 197.43312988 120.46899414 197.00024414 C104.10646903 187.5722326 104.10646903 187.5722326 101.68359375 179.2109375 C100.17794669 170.79100833 104.10440345 164.86386397 108.59375 158.0234375 C112.15900152 153.18434347 115.35727061 148.9619368 121.53955078 147.87719727 C130.27207212 147.53685028 137.1738594 150.73164693 144.90625 154.3359375 C146.23419226 154.9366966 147.56314046 155.53523692 148.89306641 156.1315918 C151.50174296 157.30246848 154.10656984 158.48129321 156.70898438 159.66601562 C161.31856156 161.74019934 165.97156729 163.68877041 170.65625 165.5859375 C171.35057129 165.86896729 172.04489258 166.15199707 172.76025391 166.44360352 C174.26611133 167.05636038 175.77345789 167.66545681 177.28125 168.2734375 C166.48589894 145.07415659 150.39216133 122.35490631 130.28125 106.2734375 C129.34023438 105.50644531 128.39921875 104.73945313 127.4296875 103.94921875 C102.51941702 83.98229177 72.74697458 71.96777262 41.28125 67.2734375 C40.630354 67.1710376 39.97945801 67.0686377 39.30883789 66.96313477 C17.02007627 63.94703851 -7.94146304 64.93245658 -29.71875 70.2734375 C-30.57484863 70.48242676 -31.43094727 70.69141602 -32.31298828 70.90673828 C-57.43264406 77.28823028 -80.78013613 88.71566709 -100.71875 105.2734375 C-101.30817383 105.76134766 -101.89759766 106.24925781 -102.50488281 106.75195312 C-114.36856986 116.6268571 -124.45474738 126.92143401 -133.71875 139.2734375 C-134.49476563 140.3046875 -135.27078125 141.3359375 -136.0703125 142.3984375 C-149.99851261 161.69120939 -158.47243957 183.05630955 -163.59082031 206.1784668 C-165.22638336 213.3141165 -166.7981476 218.12404551 -172.9140625 222.625 C-178.96646115 225.32771388 -185.8011432 224.79222487 -192.29931641 224.68505859 C-194.58151325 224.64863281 -196.86207416 224.64403966 -199.14453125 224.64453125 C-216.43488788 224.56581231 -216.43488788 224.56581231 -221.71875 222.2734375 C-224.24102517 219.62604383 -225.09968343 217.77397063 -225.1171875 214.140625 C-225.12347168 213.34414551 -225.12975586 212.54766602 -225.13623047 211.72705078 C-225.12221191 210.8761084 -225.10819336 210.02516602 -225.09375 209.1484375 C-225.08359863 208.25753418 -225.07344727 207.36663086 -225.06298828 206.44873047 C-223.89153904 155.2409608 -195.30029882 107.32497777 -160.71875 71.2734375 C-159.93628906 70.44972656 -159.15382813 69.62601562 -158.34765625 68.77734375 C-152.84651833 63.11931063 -146.90999774 58.15690831 -140.71875 53.2734375 C-139.27242187 52.10167969 -139.27242187 52.10167969 -137.796875 50.90625 C-102.97613203 23.24408617 -61.65210869 7.10092164 -17.71875 1.2734375 C-16.49510742 1.09981689 -15.27146484 0.92619629 -14.01074219 0.74731445 C-9.34219121 0.17119728 -4.70000423 0.05858078 0 0 Z " fill="#85DB6F" transform="translate(498.71875,266.7265625)"/>
<path d="M0 0 C1.16660156 0.61617187 2.33320313 1.23234375 3.53515625 1.8671875 C4.19700928 2.21338135 4.8588623 2.5595752 5.54077148 2.91625977 C7.90662627 4.16786469 10.25280065 5.45166701 12.59765625 6.7421875 C13.56606445 7.27279785 14.53447266 7.8034082 15.53222656 8.35009766 C26.03455958 14.12458191 36.48953278 19.97585907 46.72705078 26.20996094 C52.77289747 29.88166228 58.90454806 33.40186447 65.03515625 36.9296875 C66.14149414 37.5676123 67.24783203 38.20553711 68.38769531 38.86279297 C74.04050097 42.12176684 79.69833287 45.37155546 85.36328125 48.609375 C87.50406375 49.84087208 89.64469485 51.07263241 91.78515625 52.3046875 C92.76991943 52.86373779 93.75468262 53.42278809 94.76928711 53.9987793 C109.7206619 62.6343191 109.7206619 62.6343191 112.59765625 69.7421875 C113.96766082 78.41888309 109.67817211 85.47637027 104.69921875 92.37109375 C100.8102162 97.03635966 96.64391844 101.24111893 90.59765625 102.7421875 C84.7258752 103.07949518 81.10063202 102.50090472 75.7109375 99.890625 C74.77534248 99.44585312 74.77534248 99.44585312 73.82084656 98.99209595 C71.84333267 98.04813908 69.87685322 97.08344587 67.91015625 96.1171875 C66.61202236 95.49204593 65.31319737 94.86833733 64.01367188 94.24609375 C61.45726619 93.02045782 58.90454774 91.78758738 56.35400391 90.54980469 C50.8058134 87.8670321 45.2030322 85.302983 39.59765625 82.7421875 C66.97002596 127.38707533 104.80174084 161.03158312 156.7109375 173.9375 C164.61806921 175.5745544 172.59043417 176.71968252 180.59765625 177.7421875 C181.63921875 177.87625 182.68078125 178.0103125 183.75390625 178.1484375 C186.37163873 178.43228801 188.96757313 178.61712591 191.59765625 178.7421875 C192.69851563 178.79503906 193.799375 178.84789062 194.93359375 178.90234375 C245.35731392 180.09795773 291.63171974 160.11123654 327.81640625 125.70703125 C334.26134165 119.46233662 340.14206228 112.8779113 345.59765625 105.7421875 C346.39816406 104.69675781 347.19867187 103.65132812 348.0234375 102.57421875 C361.94631811 83.96324318 371.32613405 63.06142827 377.59765625 40.7421875 C381.4323851 27.09506422 381.4323851 27.09506422 385.33764648 24.6550293 C394.04142449 21.1394815 405.57197771 22.50031819 414.9206543 22.44702148 C416.34295488 22.43536194 417.76520723 22.41469723 419.18725586 22.38549805 C421.28137806 22.34279007 423.37424662 22.32667073 425.46875 22.31640625 C426.6952124 22.30182373 427.9216748 22.28724121 429.18530273 22.2722168 C433.28003239 22.83616862 435.42994525 24.12651345 438.59765625 26.7421875 C442.71600763 39.09724163 437.61346166 53.64043891 434.59765625 65.7421875 C434.4054248 66.52174805 434.21319336 67.30130859 434.01513672 68.10449219 C426.14888401 99.21801719 409.46901301 128.56238634 388.59765625 152.7421875 C387.60576699 153.91712203 386.61495093 155.0929631 385.625 156.26953125 C378.75264828 164.40685762 371.75551702 172.00376718 363.66015625 178.94921875 C362.32567753 180.10930536 361.01130487 181.29311348 359.72265625 182.50390625 C342.06796389 198.95173488 320.38019242 211.595371 298.59765625 221.7421875 C297.499375 222.26167969 296.40109375 222.78117188 295.26953125 223.31640625 C265.47476872 236.76641161 233.36659206 242.39134881 200.84765625 242.1796875 C199.34727814 242.17512543 199.34727814 242.17512543 197.81658936 242.17047119 C182.07514905 242.09994362 167.00199863 241.21702893 151.59765625 237.7421875 C150.58171387 237.52256348 149.56577148 237.30293945 148.51904297 237.07666016 C113.60528527 229.41504506 81.33183364 214.39474787 53.59765625 191.7421875 C53.08605957 191.33210449 52.57446289 190.92202148 52.04736328 190.49951172 C38.6147449 179.71416721 25.96216688 167.52573359 15.59765625 153.7421875 C15.1176416 153.11151367 14.63762695 152.48083984 14.14306641 151.83105469 C1.81987339 135.56428838 -8.14794221 118.39320431 -16.40234375 99.7421875 C-16.69367188 99.10474609 -16.985 98.46730469 -17.28515625 97.81054688 C-18.5735068 94.93583945 -19.40234375 92.93066951 -19.40234375 89.7421875 C-22.63880972 92.74183889 -24.88146128 95.88187462 -27.21484375 99.6171875 C-31.20414499 105.69753512 -35.88996431 112.13239191 -43.40234375 113.7421875 C-53.18537163 114.2485554 -62.080297 108.99129766 -69.33984375 102.8671875 C-74.50757155 97.90616881 -78.53586631 93.2925218 -79.15234375 85.9296875 C-78.73474571 79.35748975 -75.2814137 74.83210733 -71.40234375 69.7421875 C-70.63784912 68.73526855 -70.63784912 68.73526855 -69.85791016 67.70800781 C-66.31267384 63.06521644 -62.70952916 58.46982531 -59.08886719 53.88574219 C-56.77178343 50.94075153 -54.49120627 47.9686843 -52.21484375 44.9921875 C-44.81140929 35.35558592 -37.34283723 25.7730332 -29.58984375 16.4140625 C-28.06358122 14.54984183 -26.56556576 12.66229158 -25.08984375 10.7578125 C-18.20456051 1.96511972 -11.7284145 -4.33587769 0 0 Z " fill="#85DB6F" transform="translate(311.40234375,523.2578125)"/>
<path d="M0 0 C0.33 0 0.66 0 1 0 C0.93433838 1.21067139 0.86867676 2.42134277 0.80102539 3.66870117 C0.04362701 18.21322266 -0.30374798 32.75162634 -0.5625 47.3125 C-0.60584428 49.62565622 -0.64946264 51.93880732 -0.69335938 54.25195312 C-0.79871894 59.83458062 -0.90074721 65.41726077 -1 71 C-1.33 71 -1.66 71 -2 71 C-2.08302368 70.08504761 -2.08302368 70.08504761 -2.16772461 69.15161133 C-2.42155316 66.37164727 -2.67948775 63.59207876 -2.9375 60.8125 C-3.02451172 59.85279297 -3.11152344 58.89308594 -3.20117188 57.90429688 C-3.28818359 56.97294922 -3.37519531 56.04160156 -3.46484375 55.08203125 C-3.58267212 53.80162964 -3.58267212 53.80162964 -3.70288086 52.49536133 C-4.0048009 49.9596795 -4.49381141 47.50165934 -5 45 C-5.06371368 43.39696373 -5.08644214 41.79162328 -5.0625 40.1875 C-5.05347656 39.39730469 -5.04445312 38.60710937 -5.03515625 37.79296875 C-5.02355469 37.20128906 -5.01195312 36.60960937 -5 36 C-4.67 36 -4.34 36 -4 36 C-3.67 28.41 -3.34 20.82 -3 13 C-3.66 13.66 -4.32 14.32 -5 15 C-5 12.03 -5 9.06 -5 6 C-3.68 5.67 -2.36 5.34 -1 5 C-0.67 3.35 -0.34 1.7 0 0 Z " fill="#0C121B" transform="translate(173,468)"/>
<path d="M0 0 C0.99 0.33 1.98 0.66 3 1 C0.88370326 3.34135898 -1.24441629 5.67164059 -3.375 8 C-3.97828125 8.66773438 -4.5815625 9.33546875 -5.203125 10.0234375 C-5.78320312 10.65507812 -6.36328125 11.28671875 -6.9609375 11.9375 C-7.49509277 12.52402344 -8.02924805 13.11054688 -8.57958984 13.71484375 C-10 15 -10 15 -12 15 C-12.26039063 15.74636719 -12.52078125 16.49273437 -12.7890625 17.26171875 C-14.03060256 20.06920127 -15.25818639 21.61976691 -17.375 23.8125 C-23.47553601 30.43079368 -28.67030257 37.76049432 -34 45 C-34.495 43.515 -34.495 43.515 -35 42 C-33.3578367 39.42555104 -31.68631136 37.08533377 -29.8125 34.6875 C-29.27093262 33.98052979 -28.72936523 33.27355957 -28.17138672 32.54516602 C-23.14577603 26.04873338 -17.85521371 19.78735797 -12.41894531 13.63232422 C-11.3913506 12.45020133 -10.38256334 11.25164287 -9.38574219 10.04345703 C-8.85368164 9.40134277 -8.32162109 8.75922852 -7.7734375 8.09765625 C-7.29052246 7.50605713 -6.80760742 6.91445801 -6.31005859 6.30493164 C-5 5 -5 5 -3 5 C-2.690625 4.360625 -2.38125 3.72125 -2.0625 3.0625 C-1 1 -1 1 0 0 Z " fill="#141B25" transform="translate(266,274)"/>
<path d="M0 0 C5.8100941 1.67932952 11.00868579 4.39208392 16.375 7.125 C17.30183594 7.59292969 18.22867187 8.06085937 19.18359375 8.54296875 C21.45759406 9.69169056 23.72963282 10.84411881 26 12 C25.67 12.66 25.34 13.32 25 14 C18.73 11.03 12.46 8.06 6 5 C8.64436841 10.28873681 11.08217864 14.92019978 14.5 19.625 C15.1343396 20.50744385 15.1343396 20.50744385 15.78149414 21.40771484 C20.02757576 27.21328323 24.68797074 32.63980308 29.43359375 38.0390625 C31.39934885 40.30701131 33.24914036 42.56660186 35 45 C19.43872656 38.6962434 7.5504413 14.01273076 0 0 Z " fill="#060D10" transform="translate(350,605)"/>
<path d="M0 0 C1.1859375 0.00257813 2.371875 0.00515625 3.59375 0.0078125 C4.7796875 0.00523437 5.965625 0.00265625 7.1875 0 C10.09375 0.1328125 10.09375 0.1328125 11.09375 1.1328125 C13.23604384 1.36213536 15.38515143 1.52835805 17.53515625 1.66796875 C18.84033203 1.75498047 20.14550781 1.84199219 21.49023438 1.93164062 C22.87889997 2.01963041 24.26757194 2.10751972 25.65625 2.1953125 C27.04885593 2.2866866 28.44143454 2.37847803 29.83398438 2.47070312 C33.25365878 2.69552601 36.67355779 2.91603309 40.09375 3.1328125 C40.09375 3.4628125 40.09375 3.7928125 40.09375 4.1328125 C35.47375 4.4628125 30.85375 4.7928125 26.09375 5.1328125 C26.09375 4.8028125 26.09375 4.4728125 26.09375 4.1328125 C1.34375 3.6378125 1.34375 3.6378125 -23.90625 3.1328125 C-23.90625 2.8028125 -23.90625 2.4728125 -23.90625 2.1328125 C-23.30562744 2.10775635 -22.70500488 2.0827002 -22.08618164 2.05688477 C-19.38013563 1.9412597 -16.67446717 1.81838314 -13.96875 1.6953125 C-13.02322266 1.65599609 -12.07769531 1.61667969 -11.10351562 1.57617188 C-10.20439453 1.53427734 -9.30527344 1.49238281 -8.37890625 1.44921875 C-7.54625244 1.41256104 -6.71359863 1.37590332 -5.85571289 1.33813477 C-3.10104079 1.04800587 -3.098385 0.14159286 0 0 Z " fill="#273540" transform="translate(506.90625,167.8671875)"/>
<path d="M0 0 C0.33 0 0.66 0 1 0 C4.83663627 14.9354769 3.55369907 30.9514162 1 46 C0.67 46 0.34 46 0 46 C0 30.82 0 15.64 0 0 Z " fill="#17202B" transform="translate(853,488)"/>
<path d="M0 0 C3 1 3 1 4.3515625 3.1796875 C4.98191406 4.51386719 4.98191406 4.51386719 5.625 5.875 C6.05039062 6.75929688 6.47578125 7.64359375 6.9140625 8.5546875 C8 11 8 11 9 14 C9.22558594 14.65355469 9.45117188 15.30710937 9.68359375 15.98046875 C11.37956118 20.9453475 12.79314596 25.89407906 14 31 C13.01 31.66 12.02 32.32 11 33 C10.18025737 30.96123051 9.3695193 28.91883925 8.5625 26.875 C7.88380859 25.16957031 7.88380859 25.16957031 7.19140625 23.4296875 C6 20 6 20 5.5 16.9609375 C4.93218531 13.59840991 3.81147978 10.86591997 2.4375 7.75 C0 2.19830028 0 2.19830028 0 0 Z " fill="#152234" transform="translate(823,371)"/>
<path d="M0 0 C0.66 0 1.32 0 2 0 C2.69222656 1.4540625 2.69222656 1.4540625 3.3984375 2.9375 C8.30019324 13.06711581 13.87651134 22.56380435 20 32 C18.515 32.495 18.515 32.495 17 33 C16.38125 32.2884375 16.38125 32.2884375 15.75 31.5625 C13.817815 29.83733482 12.51807725 29.43415125 10 29 C10 27.68 10 26.36 10 25 C10.66 25 11.32 25 12 25 C11.38125 23.88625 10.7625 22.7725 10.125 21.625 C9.77695313 20.99851562 9.42890625 20.37203125 9.0703125 19.7265625 C7.99102726 17.8387386 7.99102726 17.8387386 6 16 C4.9095971 13.87851664 3.8745807 11.72825819 2.875 9.5625 C2.33617187 8.40878906 1.79734375 7.25507812 1.2421875 6.06640625 C0 3 0 3 0 0 Z " fill="#19222D" transform="translate(206,663)"/>
<path d="M0 0 C0.5534764 2.07553648 1 3.84365964 1 6 C0.34 6 -0.32 6 -1 6 C-1.0928125 6.50917969 -1.185625 7.01835938 -1.28125 7.54296875 C-2.29048163 10.99300514 -3.88748869 14.11396864 -5.5 17.3125 C-6.03077148 18.36667114 -6.03077148 18.36667114 -6.57226562 19.44213867 C-12.44870089 30.94415437 -19.16360986 41.72941783 -27 52 C-27 47.71559592 -24.59403856 45.16583626 -22.25 41.75 C-17.5604946 34.72308738 -13.44901733 27.49940448 -9.5625 20 C-9.06717773 19.04577148 -8.57185547 18.09154297 -8.06152344 17.10839844 C-5.18021592 11.48523319 -2.49335475 5.80558346 0 0 Z " fill="#070D13" transform="translate(738,612)"/>
<path d="M0 0 C3.3 0 6.6 0 10 0 C7.00768237 2.24423822 5.1394307 3.52110986 1.83984375 4.8671875 C0.65612183 5.35638672 0.65612183 5.35638672 -0.55151367 5.85546875 C-1.38013916 6.19191406 -2.20876465 6.52835938 -3.0625 6.875 C-4.76872746 7.5795236 -6.47445919 8.28524898 -8.1796875 8.9921875 C-9.00436523 9.3334668 -9.82904297 9.67474609 -10.67871094 10.02636719 C-15.1683614 11.90948941 -19.58963315 13.93852516 -24 16 C-22.58702227 12.42834542 -21.23122381 11.2688401 -17.75390625 9.7109375 C-16.91666016 9.32679688 -16.07941406 8.94265625 -15.21679688 8.546875 C-13.90291992 7.96679688 -13.90291992 7.96679688 -12.5625 7.375 C-10.83377359 6.59304836 -9.10587325 5.80926722 -7.37890625 5.0234375 C-6.6113501 4.68231934 -5.84379395 4.34120117 -5.05297852 3.98974609 C-2.7747518 2.94973969 -2.7747518 2.94973969 0 1 C0 0.67 0 0.34 0 0 Z " fill="#141D28" transform="translate(384,192)"/>
<path d="M0 0 C2.64 0.33 5.28 0.66 8 1 C8 1.66 8 2.32 8 3 C9.75934066 4.46795122 9.75934066 4.46795122 12.05078125 5.93359375 C13.31631836 6.7834082 13.31631836 6.7834082 14.60742188 7.65039062 C15.50009766 8.24013672 16.39277344 8.82988281 17.3125 9.4375 C19.06057085 10.59989679 20.80674337 11.76515468 22.55078125 12.93359375 C23.33106689 13.44978271 24.11135254 13.96597168 24.9152832 14.49780273 C26.82046473 15.87063116 28.4007248 17.28760923 30 19 C29.67 19.66 29.34 20.32 29 21 C23.44250534 17.20628675 17.88824523 13.40789272 12.33837891 9.60302734 C10.93228479 8.63910858 9.52582619 7.67572074 8.11865234 6.71337891 C6.6808694 5.72908083 5.24645579 4.73986529 3.8125 3.75 C3.05582031 3.22921875 2.29914062 2.7084375 1.51953125 2.171875 C1.01808594 1.78515625 0.51664063 1.3984375 0 1 C0 0.67 0 0.34 0 0 Z " fill="#101722" transform="translate(693,223)"/>
<path d="M0 0 C2.0625 0.4375 2.0625 0.4375 4 1 C3.29617188 1.51046875 2.59234375 2.0209375 1.8671875 2.546875 C-4.82395802 7.47351478 -11.19214299 12.62172317 -17.36572266 18.18847656 C-21.67876234 22 -21.67876234 22 -25 22 C-20.25524501 16.13888795 -15.19452639 11.51523013 -9.125 7.0625 C-7.60652132 5.92871951 -6.08827898 4.7946224 -4.5703125 3.66015625 C-3.90789551 3.17168213 -3.24547852 2.68320801 -2.56298828 2.17993164 C-1.04267826 1.08878181 -1.04267826 1.08878181 0 0 Z " fill="#111924" transform="translate(312,234)"/>
<path d="M0 0 C1.05156315 2.68331261 1.08397126 3.77891357 0.04370117 6.51782227 C-0.45154053 7.44135498 -0.94678223 8.3648877 -1.45703125 9.31640625 C-1.99263672 10.32767578 -2.52824219 11.33894531 -3.08007812 12.38085938 C-3.93762695 13.95577148 -3.93762695 13.95577148 -4.8125 15.5625 C-5.37259766 16.61630859 -5.93269531 17.67011719 -6.50976562 18.75585938 C-8.56286928 22.59960301 -10.58166116 26.37249174 -13 30 C-13.66 30 -14.32 30 -15 30 C-13.39220799 24.41360404 -10.79396968 19.53387849 -8.0625 14.4375 C-7.61970703 13.60025391 -7.17691406 12.76300781 -6.72070312 11.90039062 C-4.5789853 7.86910953 -2.40552365 3.88218173 0 0 Z " fill="#141C25" transform="translate(821,657)"/>
<path d="M0 0 C4.39513732 1.52256489 6.4247541 4.94844089 8.9375 8.625 C9.59455933 9.57125244 9.59455933 9.57125244 10.26489258 10.53662109 C11.12857983 11.78679193 11.98769132 13.04013855 12.84179688 14.296875 C13.81449258 15.72721338 14.80377471 17.14625263 15.796875 18.5625 C19.09538437 23.4546712 19.09538437 23.4546712 18.61328125 26.2109375 C18.41089844 26.80132812 18.20851563 27.39171875 18 28 C15.74610547 24.64843541 13.49759847 21.29328938 11.25 17.9375 C10.61578125 16.99455078 9.9815625 16.05160156 9.328125 15.08007812 C6.02569373 10.14363138 2.85953636 5.20637806 0 0 Z " fill="#111924" transform="translate(785,307)"/>
<path d="M0 0 C0.33 0 0.66 0 1 0 C1.67102852 5.17793651 -0.6230094 8.41789329 -3.1875 12.6875 C-4.01484387 14.10701195 -4.84036879 15.52758563 -5.6640625 16.94921875 C-6.0652832 17.63806152 -6.46650391 18.3269043 -6.87988281 19.03662109 C-9.10205752 22.93172331 -11.06557602 26.95617902 -13 31 C-13.79560143 28.68687448 -14.11838672 27.38802944 -13.39501953 25.01708984 C-13.06099121 24.33855957 -12.72696289 23.6600293 -12.3828125 22.9609375 C-11.84333984 21.84332031 -11.84333984 21.84332031 -11.29296875 20.703125 C-10.90753906 19.93484375 -10.52210938 19.1665625 -10.125 18.375 C-9.74730469 17.59898437 -9.36960938 16.82296875 -8.98046875 16.0234375 C-7.99812981 14.00981747 -7.00354285 12.00311464 -6 10 C-5.67 9.34 -5.34 8.68 -5 8 C-4.17850693 6.61789342 -3.34374628 5.24363496 -2.5 3.875 C-2.0565625 3.15054687 -1.613125 2.42609375 -1.15625 1.6796875 C-0.7746875 1.12539063 -0.393125 0.57109375 0 0 Z " fill="#121A24" transform="translate(214,342)"/>
<path d="M0 0 C0.66 0.33 1.32 0.66 2 1 C-1.49026255 4.91745615 -5.55644594 7.37785275 -10 10.0625 C-16.16698806 13.78401226 -16.16698806 13.78401226 -22 18 C-22.66 17.67 -23.32 17.34 -24 17 C-19.6998226 12.22990631 -14.73577442 9.0171008 -9.3125 5.625 C-8.44560547 5.06683594 -7.57871094 4.50867188 -6.68554688 3.93359375 C-5.85732422 3.41152344 -5.02910156 2.88945312 -4.17578125 2.3515625 C-3.42208252 1.87541504 -2.66838379 1.39926758 -1.8918457 0.90869141 C-1.26753662 0.60882324 -0.64322754 0.30895508 0 0 Z " fill="#17212C" transform="translate(341,215)"/>
<path d="M0 0 C6.25725504 2.08575168 8.97649377 10.92208138 11.82421875 16.58203125 C16.1467803 25.55965909 16.1467803 25.55965909 15 29 C11.92092522 24.38138783 9.49928924 19.41983384 6.9375 14.5 C6.38255859 13.44167969 5.82761719 12.38335937 5.25585938 11.29296875 C4.46211914 9.77123047 4.46211914 9.77123047 3.65234375 8.21875 C2.92519165 6.8255957 2.92519165 6.8255957 2.18334961 5.40429688 C1 3 1 3 0 0 Z " fill="#111923" transform="translate(807,340)"/>
<path d="M0 0 C3.60065855 3.35668869 6.40189216 7.07597697 9.25 11.0625 C9.70890625 11.68705078 10.1678125 12.31160156 10.640625 12.95507812 C14 17.63920666 14 17.63920666 14 21 C11.80273438 19.14453125 11.80273438 19.14453125 9.60546875 17.2890625 C8.1344954 16.10798901 6.56962206 15.04641471 5 14 C4.855625 13.236875 4.71125 12.47375 4.5625 11.6875 C4.17462 8.8198837 4.17462 8.8198837 1.9375 6.4375 C0 4 0 4 0 0 Z " fill="#151E28" transform="translate(230,703)"/>
<path d="M0 0 C0.99 0.33 1.98 0.66 3 1 C2.31292969 2.02480469 1.62585938 3.04960937 0.91796875 4.10546875 C0.00775046 5.46610433 -0.90240233 6.82678373 -1.8125 8.1875 C-2.26431641 8.86103516 -2.71613281 9.53457031 -3.18164062 10.22851562 C-3.84389648 11.21948242 -3.84389648 11.21948242 -4.51953125 12.23046875 C-4.95088379 12.8754834 -5.38223633 13.52049805 -5.82666016 14.18505859 C-6.82398921 15.72774361 -7.73987496 17.32259271 -8.63671875 18.92578125 C-10 21 -10 21 -13 22 C-12.33333333 20.33333333 -11.66666667 18.66666667 -11 17 C-10.71125 16.154375 -10.4225 15.30875 -10.125 14.4375 C-8.8220195 11.61437559 -7.1960688 10.1960688 -5 8 C-3.23546062 5.39089477 -1.60479748 2.70974001 0 0 Z " fill="#131C26" transform="translate(228,320)"/>
<path d="M0 0 C4.17542809 1.59299508 6.72890616 4.68133032 9.625 7.9375 C10.11484375 8.47568359 10.6046875 9.01386719 11.109375 9.56835938 C13.27133449 11.9636451 15.20708323 14.31062484 17 17 C16.67 17.99 16.34 18.98 16 20 C15.62190186 19.56131592 15.24380371 19.12263184 14.85424805 18.6706543 C13.13320999 16.67522109 11.41037472 14.68134757 9.6875 12.6875 C8.79514648 11.65206055 8.79514648 11.65206055 7.88476562 10.59570312 C7.01948242 9.59506836 7.01948242 9.59506836 6.13671875 8.57421875 C5.60780029 7.96151123 5.07888184 7.34880371 4.53393555 6.7175293 C3.02057287 4.97352297 3.02057287 4.97352297 1.30395508 3.40161133 C0 2 0 2 0 0 Z " fill="#131B26" transform="translate(761,278)"/>
<path d="M0 0 C9.84747723 4.46447449 16.75179569 15.55701506 23 24 C22.67 24.66 22.34 25.32 22 26 C21.29875 25.16597656 20.5975 24.33195312 19.875 23.47265625 C15.45240968 18.22200313 11.02316852 12.97701331 6.5 7.8125 C5.8915625 7.11769531 5.283125 6.42289062 4.65625 5.70703125 C2.91137958 3.78860477 2.91137958 3.78860477 0 2 C0 1.34 0 0.68 0 0 Z " fill="#0C1516" transform="translate(635,379)"/>
<path d="M0 0 C3.52648783 1.69476842 6.8767124 3.64502684 10.25 5.625 C11.32765625 6.25664062 12.4053125 6.88828125 13.515625 7.5390625 C14.74539063 8.26222656 14.74539063 8.26222656 16 9 C15.67 9.66 15.34 10.32 15 11 C12.18400426 9.88315758 9.3723799 8.75703794 6.5625 7.625 C5.76005859 7.30789062 4.95761719 6.99078125 4.13085938 6.6640625 C3.36708984 6.3546875 2.60332031 6.0453125 1.81640625 5.7265625 C1.10943604 5.44377441 0.40246582 5.16098633 -0.32592773 4.86962891 C-2 4 -2 4 -3 2 C-2.01 1.34 -1.02 0.68 0 0 Z " fill="#141D2A" transform="translate(640,193)"/>
<path d="M0 0 C3.10866406 0.58408521 4.84732197 1.44173123 7.1640625 3.58203125 C7.72867188 4.10216797 8.29328125 4.62230469 8.875 5.15820312 C9.4525 5.70412109 10.03 6.25003906 10.625 6.8125 C11.21023438 7.34681641 11.79546875 7.88113281 12.3984375 8.43164062 C17.62046781 13.30034549 17.62046781 13.30034549 19 17 C12.20460831 12.21012506 5.94694218 6.80482775 0 1 C0 0.67 0 0.34 0 0 Z " fill="#111822" transform="translate(733,252)"/>
<path d="M0 0 C15.11809191 -0.38219895 15.11809191 -0.38219895 22 2 C22.66 2.66 23.32 3.32 24 4 C18.49567039 4.1754368 13.46337653 3.5274161 8.0625 2.5 C6.89364258 2.28537109 6.89364258 2.28537109 5.70117188 2.06640625 C3.7997579 1.71645276 1.89972607 1.35900335 0 1 C0 0.67 0 0.34 0 0 Z " fill="#101722" transform="translate(549,173)"/>
<path d="M0 0 C2.81158409 2.49824489 4.44837831 5.278476 6.25 8.5625 C6.79140625 9.53316406 7.3328125 10.50382812 7.890625 11.50390625 C8.25671875 12.32761719 8.6228125 13.15132813 9 14 C8.67 14.66 8.34 15.32 8 16 C6.01755108 15.21658881 4.03911141 14.42302514 2.0625 13.625 C0.96035156 13.18414062 -0.14179687 12.74328125 -1.27734375 12.2890625 C-4 11 -4 11 -5 9 C-1.7 9.99 1.6 10.98 5 12 C4.6390625 11.30132812 4.278125 10.60265625 3.90625 9.8828125 C3.4421875 8.97273438 2.978125 8.06265625 2.5 7.125 C2.0359375 6.22007812 1.571875 5.31515625 1.09375 4.3828125 C0 2 0 2 0 0 Z " fill="#080F12" transform="translate(668,420)"/>
<path d="M0 0 C1.6498275 0.42218816 3.29483665 0.86324425 4.9375 1.3125 C6.31228516 1.67794922 6.31228516 1.67794922 7.71484375 2.05078125 C8.46894531 2.36402344 9.22304688 2.67726563 10 3 C10.33 3.99 10.66 4.98 11 6 C12.64455275 6.71949183 14.31923769 7.36971413 16 8 C19.03440958 9.60615314 22.01841316 11.29809204 25 13 C22 14 22 14 19.63989258 12.93603516 C18.73392334 12.39253418 17.8279541 11.8490332 16.89453125 11.2890625 C15.42016602 10.41121094 15.42016602 10.41121094 13.91601562 9.515625 C12.89185547 8.89171875 11.86769531 8.2678125 10.8125 7.625 C9.77673828 7.00882813 8.74097656 6.39265625 7.67382812 5.7578125 C2.13760581 2.43389232 2.13760581 2.43389232 0 1 C0 0.67 0 0.34 0 0 Z " fill="#091015" transform="translate(330,533)"/>
<path d="M0 0 C4.38946939 4.96200888 4.12748043 10.50691805 4.0625 16.875 C4.05347656 18.02742188 4.04445313 19.17984375 4.03515625 20.3671875 C4.02355469 21.23601562 4.01195312 22.10484375 4 23 C3.67 23 3.34 23 3 23 C2.49187886 20.48056604 1.99335466 17.95983127 1.5 15.4375 C1.35691406 14.73302734 1.21382812 14.02855469 1.06640625 13.30273438 C0.19125075 8.78109762 -0.14523405 4.60512972 0 0 Z " fill="#12181F" transform="translate(848,449)"/>
<path d="M0 0 C0 0.66 0 1.32 0 2 C-2.57525715 3.53617083 -5.158674 5.05388201 -7.75 6.5625 C-8.47960937 7.00013672 -9.20921875 7.43777344 -9.9609375 7.88867188 C-10.66992188 8.29794922 -11.37890625 8.70722656 -12.109375 9.12890625 C-13.08342285 9.70233765 -13.08342285 9.70233765 -14.07714844 10.28735352 C-16.4410801 11.16347293 -17.65942846 10.82193222 -20 10 C-17.04550087 8.3264663 -14.0857982 6.66236015 -11.125 5 C-10.28324219 4.52304687 -9.44148437 4.04609375 -8.57421875 3.5546875 C-7.76855469 3.10351562 -6.96289062 2.65234375 -6.1328125 2.1875 C-5.38918457 1.76855469 -4.64555664 1.34960938 -3.87939453 0.91796875 C-2 0 -2 0 0 0 Z " fill="#131A23" transform="translate(687,806)"/>
<path d="M0 0 C0.66 0 1.32 0 2 0 C5.07692308 6.4 5.07692308 6.4 4.6875 9.4375 C4.460625 9.953125 4.23375 10.46875 4 11 C3.01 8.69 2.02 6.38 1 4 C-2.59478807 7.32850747 -5.22364768 10.98971331 -8 15 C-8 10.94428345 -6.37131367 9.15798851 -4.125 5.8125 C-3.40570313 4.72582031 -2.68640625 3.63914062 -1.9453125 2.51953125 C-1.30335938 1.68808594 -0.66140625 0.85664062 0 0 Z " fill="#091212" transform="translate(290,613)"/>
<path d="M0 0 C0.33 0 0.66 0 1 0 C1.3561397 6.41051461 0.56373679 12.06014892 -2 18 C-3.60546875 19.79296875 -3.60546875 19.79296875 -5 21 C-3.83760783 13.80684375 -2.25496388 6.93025566 0 0 Z " fill="#131B24" transform="translate(844,591)"/>
<path d="M0 0 C3 1 3 1 4.3515625 3.1796875 C4.98191406 4.51386719 4.98191406 4.51386719 5.625 5.875 C6.05039062 6.75929688 6.47578125 7.64359375 6.9140625 8.5546875 C8 11 8 11 9 14 C8.0625 16.1875 8.0625 16.1875 7 18 C5.82887054 15.37690901 4.66294036 12.75171858 3.5 10.125 C3.16613281 9.37863281 2.83226562 8.63226563 2.48828125 7.86328125 C2.17246094 7.14785156 1.85664062 6.43242187 1.53125 5.6953125 C1.23798828 5.03547363 0.94472656 4.37563477 0.64257812 3.69580078 C0 2 0 2 0 0 Z " fill="#131B24" transform="translate(823,371)"/>
<path d="M0 0 C0.33 0.99 0.66 1.98 1 3 C1.66 3.66 2.32 4.32 3 5 C-3.14154225 4.41509121 -9.00679849 3.45933748 -15 2 C-15 1.67 -15 1.34 -15 1 C-9.92928099 0.28832014 -5.11791642 -0.10662326 0 0 Z " fill="#131C27" transform="translate(589,176)"/>
<path d="M0 0 C3.49465936 2.06159761 6.89878187 4.21234212 10.25 6.5 C11.55710937 7.38171875 11.55710937 7.38171875 12.890625 8.28125 C15 10 15 10 16 13 C12.38923255 11.30854826 9.09307022 9.23065061 5.75 7.0625 C4.67234375 6.37285156 3.5946875 5.68320312 2.484375 4.97265625 C1.25460937 3.99619141 1.25460937 3.99619141 0 3 C0 2.01 0 1.02 0 0 Z " fill="#151D28" transform="translate(307,785)"/>
<path d="M0 0 C0.66 0 1.32 0 2 0 C2 2.97 2 5.94 2 9 C2.66 9.33 3.32 9.66 4 10 C3.67 13.63 3.34 17.26 3 21 C2.67 21 2.34 21 2 21 C2 18.36 2 15.72 2 13 C1.34 13 0.68 13 0 13 C0 8.71 0 4.42 0 0 Z " fill="#1F2A34" transform="translate(852,475)"/>
<path d="M0 0 C0.66 0.33 1.32 0.66 2 1 C2.10920422 8.74136601 1.97159933 16.31395526 1 24 C0.67 24 0.34 24 0 24 C0 18.72 0 13.44 0 8 C-0.66 8.66 -1.32 9.32 -2 10 C-2 7.03 -2 4.06 -2 1 C-1.34 0.67 -0.68 0.34 0 0 Z " fill="#2E404C" transform="translate(170,473)"/>
<path d="M0 0 C7.16562789 -0.28100502 13.94546999 0.79556805 21 2 C21 2.33 21 2.66 21 3 C18.62492145 3.02719556 16.25016036 3.04693247 13.875 3.0625 C12.87726563 3.07506836 12.87726563 3.07506836 11.859375 3.08789062 C7.79318646 3.10782292 3.9879908 2.78890161 0 2 C0 1.34 0 0.68 0 0 Z " fill="#161D25" transform="translate(459,850)"/>
<path d="M0 0 C4.33333333 4.33333333 8.66666667 8.66666667 13 13 C12.01 13.33 11.02 13.66 10 14 C6.37 10.04 2.74 6.08 -1 2 C-0.67 1.34 -0.34 0.68 0 0 Z " fill="#161D26" transform="translate(256,737)"/>
<path d="M0 0 C0 3.99476331 -1.28869085 5.1421336 -4 8 C-6.5 9.1875 -6.5 9.1875 -9 10 C-10.34050052 10.65213539 -11.67661368 11.31379969 -13 12 C-9.22660027 7.04741286 -5.09210286 3.56320845 0 0 Z " fill="#070F1B" transform="translate(403,367)"/>
<path d="M0 0 C-0.66 0 -1.32 0 -2 0 C-2 0.66 -2 1.32 -2 2 C-12.37357631 5.44419134 -12.37357631 5.44419134 -18 5 C-15.4033438 2.4033438 -13.06184625 1.89312309 -9.5625 0.8125 C-8.40878906 0.44769531 -7.25507812 0.08289063 -6.06640625 -0.29296875 C-3 -1 -3 -1 0 0 Z " fill="#121922" transform="translate(622,837)"/>
<path d="M0 0 C3.05936637 3.75467691 5 7.08113061 5 12 C4.34 12 3.68 12 3 12 C3 11.34 3 10.68 3 10 C1.68 10 0.36 10 -1 10 C-1.33 10.66 -1.66 11.32 -2 12 C-2 10.02 -2 8.04 -2 6 C-1.01 6.495 -1.01 6.495 0 7 C-0.33 7.66 -0.66 8.32 -1 9 C-0.01 9 0.98 9 2 9 C1.67 8.443125 1.34 7.88625 1 7.3125 C-0.1309601 4.69715478 -0.15662974 2.8193354 0 0 Z " fill="#18212B" transform="translate(194,635)"/>
<path d="M0 0 C0.33 0 0.66 0 1 0 C1.10331031 7.42686315 0.99862699 14.63512596 0 22 C-0.33 22 -0.66 22 -1 22 C-1.33 16.39 -1.66 10.78 -2 5 C-1.67 5 -1.34 5 -1 5 C-0.67 3.35 -0.34 1.7 0 0 Z " fill="#273643" transform="translate(854,526)"/>
<path d="M0 0 C2.64 0.33 5.28 0.66 8 1 C8 1.66 8 2.32 8 3 C9.96147874 4.38938077 11.96166576 5.7260411 14 7 C12.328125 7.7109375 12.328125 7.7109375 10 8 C7.421875 6.6015625 7.421875 6.6015625 4.75 4.625 C3.85796875 3.97789062 2.9659375 3.33078125 2.046875 2.6640625 C1.37140625 2.11492187 0.6959375 1.56578125 0 1 C0 0.67 0 0.34 0 0 Z " fill="#131D2A" transform="translate(693,223)"/>
<path d="M0 0 C5.75762166 1.08896667 11.39247819 2.29336293 17 4 C17 4.33 17 4.66 17 5 C10.81056603 5.33157682 6.66033778 4.58190846 1 2 C0.67 1.34 0.34 0.68 0 0 Z " fill="#131A24" transform="translate(412,839)"/>
<path d="M0 0 C3.3125 1.3125 3.3125 1.3125 6 3 C6.33 3.99 6.66 4.98 7 6 C3.92064178 4.97354726 0.85463684 3.9458451 -2.1875 2.8125 C-5.04346092 1.69943046 -5.04346092 1.69943046 -8 3 C-8 2.34 -8 1.68 -8 1 C-5.16870331 -0.41564834 -3.14918438 -0.24224495 0 0 Z " fill="#1D2937" transform="translate(368,821)"/>
<path d="M0 0 C4.69159716 3.38772897 9.0299782 6.78185183 13 11 C12.01 11.495 12.01 11.495 11 12 C2.72727273 6.27272727 2.72727273 6.27272727 0 3 C0 2.01 0 1.02 0 0 Z " fill="#151C26" transform="translate(282,764)"/>
<path d="M0 0 C0.66 0 1.32 0 2 0 C0.35433477 5.68502535 -2.29032784 10.76681636 -5 16 C-6.25348607 13.04893565 -6.01044806 12.02593537 -4.78515625 8.984375 C-4.21667969 7.91703125 -3.64820313 6.8496875 -3.0625 5.75 C-2.49660156 4.67234375 -1.93070313 3.5946875 -1.34765625 2.484375 C-0.90292969 1.66453125 -0.45820313 0.8446875 0 0 Z " fill="#101720" transform="translate(206,357)"/>
<path d="M0 0 C0.66 0 1.32 0 2 0 C3.03041513 1.95330868 4.0490893 3.91281528 5.0625 5.875 C5.63097656 6.96554687 6.19945312 8.05609375 6.78515625 9.1796875 C7.18605469 10.11039063 7.58695313 11.04109375 8 12 C7.67 12.66 7.34 13.32 7 14 C4.66714622 11.86099367 3.2131241 9.83344647 1.8125 7 C1.46832031 6.319375 1.12414062 5.63875 0.76953125 4.9375 C0 3 0 3 0 0 Z " fill="#10161F" transform="translate(206,663)"/>
<path d="M0 0 C2.70019567 5.40039133 2.93367998 7.75941551 2.0625 13.625 C1.96259766 14.33140625 1.86269531 15.0378125 1.75976562 15.765625 C1.51208041 17.51121607 1.25676129 19.25572084 1 21 C0.67 21 0.34 21 0 21 C0 14.07 0 7.14 0 0 Z " fill="#070C1A" transform="translate(853,513)"/>
<path d="M0 0 C0.99 0.33 1.98 0.66 3 1 C1.57282151 2.67551353 0.13291518 4.34019309 -1.3125 6 C-2.51326172 7.3921875 -2.51326172 7.3921875 -3.73828125 8.8125 C-6 11 -6 11 -9 11 C-6.03 7.37 -3.06 3.74 0 0 Z " fill="#101721" transform="translate(776,727)"/>
<path d="M0 0 C5.29333218 0.51642265 8.63789377 2.09192918 13 5 C13.33 5.99 13.66 6.98 14 8 C9.02790438 6.23570801 4.56561939 3.6060834 0 1 C0 0.67 0 0.34 0 0 Z " fill="#111924" transform="translate(677,214)"/>
<path d="M0 0 C-1.485 2.475 -1.485 2.475 -3 5 C-5.64 4.67 -8.28 4.34 -11 4 C-3.77464789 -1.88732394 -3.77464789 -1.88732394 0 0 Z " fill="#161F2B" transform="translate(647,827)"/>
<path d="M0 0 C4.49797113 1.68673918 8.72886302 3.81673892 13 6 C13 6.33 13 6.66 13 7 C7.90546328 7.6175196 5.11633454 5.77060979 1 3 C0.67 2.01 0.34 1.02 0 0 Z " fill="#141B25" transform="translate(352,814)"/>
<path d="M0 0 C0.33 0 0.66 0 1 0 C1.18451025 9.41002278 1.18451025 9.41002278 0 14 C-0.66 14 -1.32 14 -2 14 C-1.85923685 12.0412957 -1.7122324 10.08303907 -1.5625 8.125 C-1.48128906 7.03445313 -1.40007813 5.94390625 -1.31640625 4.8203125 C-1 2 -1 2 0 0 Z " fill="#131A24" transform="translate(848,572)"/>
<path d="M0 0 C1.55945072 3.11890143 0.64552918 5.65498518 0 9 C-2 12 -2 12 -4 14 C-3.66009167 8.62007164 -3.31442207 4.46726453 0 0 Z " fill="#AEE785" transform="translate(694,551)"/>
<path d="M0 0 C0 3 0 3 -1 6 C-2.62890625 7.60546875 -2.62890625 7.60546875 -4.5625 9.1875 C-5.20316406 9.71730469 -5.84382812 10.24710938 -6.50390625 10.79296875 C-6.99761719 11.19128906 -7.49132812 11.58960938 -8 12 C-8.66 11.67 -9.32 11.34 -10 11 C-6.7 7.37 -3.4 3.74 0 0 Z " fill="#070C16" transform="translate(702,673)"/>
<path d="M0 0 C2.97526665 2.55022856 4.50122302 5.40293526 6 9 C5.67 9.99 5.34 10.98 5 12 C4.15556432 10.75747321 3.3248542 9.5056114 2.5 8.25 C1.80390625 7.20585938 1.80390625 7.20585938 1.09375 6.140625 C0 4 0 4 0 0 Z " fill="#0F1620" transform="translate(200,650)"/>
<path d="M0 0 C0 3.80345877 -1.13786331 4.77701015 -3.5 7.6875 C-4.47453125 8.89986328 -4.47453125 8.89986328 -5.46875 10.13671875 C-5.9740625 10.75160156 -6.479375 11.36648438 -7 12 C-8 9 -8 9 -7 6 C-5.66666667 5.33333333 -4.33333333 4.66666667 -3 4 C-1.26574227 1.96682993 -1.26574227 1.96682993 0 0 Z " fill="#071119" transform="translate(256,570)"/>
<path d="M0 0 C3.26725537 0.1884955 5.38378692 0.63155576 8.25 2.1875 C8.58 3.1775 8.91 4.1675 9.25 5.1875 C7.45763933 4.71093588 5.66613103 4.23116502 3.875 3.75 C2.87726563 3.48316406 1.87953125 3.21632813 0.8515625 2.94140625 C-1.75 2.1875 -1.75 2.1875 -3.75 1.1875 C-2.75 0.1875 -2.75 0.1875 0 0 Z " fill="#1E2833" transform="translate(382.75,828.8125)"/>
<path d="M0 0 C2.68433048 2.45091043 3.91789741 4.28241384 4.09765625 8.04296875 C4.06510417 10.02864583 4.03255208 12.01432292 4 14 C1.51787516 9.39033958 0 5.27072485 0 0 Z " fill="#0C121B" transform="translate(839,413)"/>
<path d="M0 0 C-1.50139512 4.20390632 -4.17275043 5.89110738 -8 8 C-8.99 7.67 -9.98 7.34 -11 7 C-9.54634731 5.82750647 -8.08692581 4.66216184 -6.625 3.5 C-5.40683594 2.52546875 -5.40683594 2.52546875 -4.1640625 1.53125 C-2 0 -2 0 0 0 Z " fill="#131B24" transform="translate(723,781)"/>
<path d="M0 0 C0.66 0 1.32 0 2 0 C1.54917531 1.46067199 1.08906463 2.91848032 0.625 4.375 C0.36976563 5.18710937 0.11453125 5.99921875 -0.1484375 6.8359375 C-1 9 -1 9 -3 11 C-3.3227506 6.37390802 -2.84450614 3.71973879 0 0 Z " fill="#111822" transform="translate(195,382)"/>
<path d="M0 0 C0.99 0.33 1.98 0.66 3 1 C0.03 3.64 -2.94 6.28 -6 9 C-6.33 8.01 -6.66 7.02 -7 6 C-5.90716423 4.96704564 -4.80029421 3.94892165 -3.6875 2.9375 C-3.07261719 2.36902344 -2.45773437 1.80054688 -1.82421875 1.21484375 C-0.92123047 0.61349609 -0.92123047 0.61349609 0 0 Z " fill="#131A24" transform="translate(281,260)"/>
<path d="M0 0 C0.66 0 1.32 0 2 0 C2.39063507 1.43333021 2.76198474 2.87192679 3.125 4.3125 C3.33382812 5.11300781 3.54265625 5.91351562 3.7578125 6.73828125 C4 9 4 9 2 12 C0.86235649 7.73383684 0 4.43513689 0 0 Z " fill="#1B242D" transform="translate(177,582)"/>
<path d="M0 0 C0.33 0.66 0.66 1.32 1 2 C0.071875 2.4021875 0.071875 2.4021875 -0.875 2.8125 C-3.2995233 3.95556848 -3.2995233 3.95556848 -5 7 C-6.32 7 -7.64 7 -9 7 C-8 4 -8 4 -6.15234375 2.83203125 C-5.42144531 2.49558594 -4.69054687 2.15914062 -3.9375 1.8125 C-3.20402344 1.46832031 -2.47054687 1.12414062 -1.71484375 0.76953125 C-1.14894531 0.51558594 -0.58304688 0.26164063 0 0 Z " fill="#09121A" transform="translate(630,734)"/>
<path d="M0 0 C-2.49505962 2.49505962 -3.67328888 2.35948376 -7.125 2.625 C-8.03507812 2.69976562 -8.94515625 2.77453125 -9.8828125 2.8515625 C-10.93082031 2.92503906 -10.93082031 2.92503906 -12 3 C-7.82744729 -0.58050131 -5.33135955 -0.26656798 0 0 Z " fill="#0C131D" transform="translate(446,177)"/>
<path d="M0 0 C3.59391114 1.33488128 6.75490696 2.96022723 10 5 C8.3125 5.6875 8.3125 5.6875 6 6 C3.3125 4.75 3.3125 4.75 1 3 C0.67 2.01 0.34 1.02 0 0 Z " fill="#111924" transform="translate(338,806)"/>
<path d="M0 0 C0.33 0 0.66 0 1 0 C0.50769231 6.4 0.50769231 6.4 -2.0625 9.4375 C-2.701875 9.953125 -3.34125 10.46875 -4 11 C-3.52269162 9.5410574 -3.04308958 8.08286504 -2.5625 6.625 C-2.29566406 5.81289063 -2.02882813 5.00078125 -1.75390625 4.1640625 C-1 2 -1 2 0 0 Z " fill="#101720" transform="translate(830,636)"/>
<path d="M0 0 C0.33 1.32 0.66 2.64 1 4 C-0.9375 6.75 -0.9375 6.75 -3 9 C-3.99 8.67 -4.98 8.34 -6 8 C-4.02 5.36 -2.04 2.72 0 0 Z " fill="#17212B" transform="translate(242,301)"/>
<path d="M0 0 C0.66 0.33 1.32 0.66 2 1 C1.34 1.66 0.68 2.32 0 3 C0 3.99 0 4.98 0 6 C-1.98 6.33 -3.96 6.66 -6 7 C-4.02 4.69 -2.04 2.38 0 0 Z " fill="#1A2634" transform="translate(288,253)"/>
<path d="M0 0 C1.43861294 0.08746284 2.87597508 0.19565348 4.3125 0.3125 C5.11300781 0.37050781 5.91351562 0.42851562 6.73828125 0.48828125 C9.36272334 1.08206694 10.30820672 1.95780294 12 4 C10.3733152 3.71788123 8.74867104 3.42397625 7.125 3.125 C5.76761719 2.88136719 5.76761719 2.88136719 4.3828125 2.6328125 C2 2 2 2 0 0 Z " fill="#0F1621" transform="translate(608,185)"/>
<path d="M0 0 C3.68754757 0.49831724 5.60490662 1.10067643 8 4 C5 4 5 4 3 3 C2.34 3.66 1.68 4.32 1 5 C0.67 3.35 0.34 1.7 0 0 Z " fill="#1A2530" transform="translate(331,803)"/>
<path d="M0 0 C1.32 0.33 2.64 0.66 4 1 C1.69 2.65 -0.62 4.3 -3 6 C-3.66 5.67 -4.32 5.34 -5 5 C-2.75 2.4375 -2.75 2.4375 0 0 Z " fill="#101822" transform="translate(322,227)"/>
<path d="M0 0 C0 0.66 0 1.32 0 2 C-5.41538462 3.23076923 -5.41538462 3.23076923 -8.375 2.0625 C-8.91125 1.711875 -9.4475 1.36125 -10 1 C-3.375 -1.125 -3.375 -1.125 0 0 Z " fill="#1E2B38" transform="translate(436,179)"/>
<path d="M0 0 C0.78890625 0.12761719 1.5778125 0.25523437 2.390625 0.38671875 C3.18984375 0.50660156 3.9890625 0.62648438 4.8125 0.75 C5.41578125 0.85699219 6.0190625 0.96398437 6.640625 1.07421875 C6.640625 1.40421875 6.640625 1.73421875 6.640625 2.07421875 C0.205625 2.56921875 0.205625 2.56921875 -6.359375 3.07421875 C-2.359375 0.07421875 -2.359375 0.07421875 0 0 Z " fill="#26343F" transform="translate(560.359375,849.92578125)"/>
<path d="M0 0 C-3.08888522 2.05925681 -3.70935927 2.2390374 -7.1875 2.125 C-9.0746875 2.063125 -9.0746875 2.063125 -11 2 C-6.98764085 -0.6749061 -4.6342454 -1.48957888 0 0 Z " fill="#0E121C" transform="translate(603,843)"/>
<path d="M0 0 C1 2 1 2 0.375 3.9375 C-1.35198322 6.52797483 -3.2734275 7.56496184 -6 9 C-4.47291037 5.56404834 -2.40072955 2.88087546 0 0 Z " fill="#060C14" transform="translate(746,495)"/>
<path d="M0 0 C0.66 0.33 1.32 0.66 2 1 C0.25 3.0625 0.25 3.0625 -2 5 C-4.25 4.75 -4.25 4.75 -6 4 C-4.02 2.68 -2.04 1.36 0 0 Z " fill="#ADEB83" transform="translate(385,301)"/>
<path d="M0 0 C5.94 0 11.88 0 18 0 C18 0.33 18 0.66 18 1 C12.06 1 6.12 1 0 1 C0 0.67 0 0.34 0 0 Z " fill="#223244" transform="translate(520,168)"/>
<path d="M0 0 C2.97 0.99 5.94 1.98 9 3 C7.02 3.99 7.02 3.99 5 5 C4.67 4.34 4.34 3.68 4 3 C1.98330173 1.86649466 1.98330173 1.86649466 0 1 C0 0.67 0 0.34 0 0 Z " fill="#111722" transform="translate(374,825)"/>
<path d="M0 0 C3.16115776 1.36983503 3.9927092 1.9890638 6 5 C4.35 5.33 2.7 5.66 1 6 C0.67 4.02 0.34 2.04 0 0 Z " fill="#131C27" transform="translate(298,778)"/>
<path d="M0 0 C0.33 0 0.66 0 1 0 C1.25 2.25 1.25 2.25 1 5 C-1 7.3125 -1 7.3125 -3 9 C-3 5.30581799 -1.71820705 3.22163822 0 0 Z " fill="#18222B" transform="translate(214,342)"/>
<path d="M0 0 C-3.53411321 2.12046792 -6.94393835 2.53199289 -11 3 C-8.21756596 -1.17365106 -4.53441502 -0.22300402 0 0 Z " fill="#0B111B" transform="translate(430,181)"/>
<path d="M0 0 C0.94875 0.04125 1.8975 0.0825 2.875 0.125 C0.875 2.125 0.875 2.125 -2.25 2.25 C-3.673125 2.188125 -3.673125 2.188125 -5.125 2.125 C-3.125 0.125 -3.125 0.125 0 0 Z " fill="#243647" transform="translate(479.125,167.875)"/>
<path d="M0 0 C2.31 0 4.62 0 7 0 C5.02 0.99 5.02 0.99 3 2 C2.01 1.34 1.02 0.68 0 0 Z " fill="#263747" transform="translate(465,854)"/>
<path d="M0 0 C1.98 0.66 3.96 1.32 6 2 C6 2.33 6 2.66 6 3 C4.35 3 2.7 3 1 3 C0.67 2.01 0.34 1.02 0 0 Z " fill="#233245" transform="translate(344,813)"/>
<path d="M0 0 C0.66 0 1.32 0 2 0 C2.33 0.99 2.66 1.98 3 3 C2.01 3.33 1.02 3.66 0 4 C0 2.68 0 1.36 0 0 Z " fill="#223245" transform="translate(232,712)"/>
<path d="M0 0 C0.33 0 0.66 0 1 0 C1 2.97 1 5.94 1 9 C0.67 9 0.34 9 0 9 C0 6.03 0 3.06 0 0 Z " fill="#27384B" transform="translate(168,526)"/>
<path d="M0 0 C0.94875 0.04125 1.8975 0.0825 2.875 0.125 C2.875 0.455 2.875 0.785 2.875 1.125 C0.235 1.455 -2.405 1.785 -5.125 2.125 C-3.125 0.125 -3.125 0.125 0 0 Z " fill="#213345" transform="translate(435.125,175.875)"/>
<path d="M0 0 C2.97 0 5.94 0 9 0 C9 0.33 9 0.66 9 1 C6.03 1 3.06 1 0 1 C0 0.67 0 0.34 0 0 Z " fill="#243647" transform="translate(483,168)"/>
<path d="M0 0 C1.0625 1.875 1.0625 1.875 2 4 C1.67 4.66 1.34 5.32 1 6 C0 5 0 5 -0.0625 2.4375 C-0.041875 1.633125 -0.02125 0.82875 0 0 Z " fill="#253646" transform="translate(184,615)"/>
<path d="M0 0 C0.33 0 0.66 0 1 0 C1 2.31 1 4.62 1 7 C0.67 7 0.34 7 0 7 C0 4.69 0 2.38 0 0 Z " fill="#253648" transform="translate(168,488)"/>
<path d="M0 0 C0.33 0.99 0.66 1.98 1 3 C0.34 3.99 -0.32 4.98 -1 6 C-0.67 4.02 -0.34 2.04 0 0 Z " fill="#233547" transform="translate(177,430)"/>
<path d="M0 0 C0.66 0.66 1.32 1.32 2 2 C1.67 2.99 1.34 3.98 1 5 C0.67 3.35 0.34 1.7 0 0 Z " fill="#213348" transform="translate(208,344)"/>
<path d="M0 0 C2.31 0 4.62 0 7 0 C7 0.33 7 0.66 7 1 C4.69 1 2.38 1 0 1 C0 0.67 0 0.34 0 0 Z " fill="#203244" transform="translate(496,168)"/>
<path d="M0 0 C0.33 0 0.66 0 1 0 C1 1.98 1 3.96 1 6 C0.67 6 0.34 6 0 6 C0 4.02 0 2.04 0 0 Z " fill="#243748" transform="translate(855,542)"/>
<path d="M0 0 C0.33 0.99 0.66 1.98 1 3 C0.01 2.67 -0.98 2.34 -2 2 C-1.34 2 -0.68 2 0 2 C0 1.34 0 0.68 0 0 Z " fill="#253645" transform="translate(376,829)"/>
<path d="M0 0 C0.66 1.32 1.32 2.64 2 4 C1.34 3.67 0.68 3.34 0 3 C0 2.01 0 1.02 0 0 Z " fill="#243345" transform="translate(224,699)"/>
<path d="M0 0 C0.66 1.32 1.32 2.64 2 4 C1.34 4 0.68 4 0 4 C0 2.68 0 1.36 0 0 Z " fill="#243546" transform="translate(200,656)"/>
<path d="M0 0 C0.33 0 0.66 0 1 0 C1 1.65 1 3.3 1 5 C0.67 5 0.34 5 0 5 C0 3.35 0 1.7 0 0 Z " fill="#213244" transform="translate(168,519)"/>
<path d="M0 0 C4 1 4 1 4 1 Z " fill="#273746" transform="translate(476,855)"/>
<path d="M0 0 C0.99 0.33 1.98 0.66 3 1 C2.01 1 1.02 1 0 1 C0 0.67 0 0.34 0 0 Z " fill="#273948" transform="translate(555,854)"/>
<path d="M0 0 C4 1 4 1 4 1 Z " fill="#243646" transform="translate(400,839)"/>
<path d="M0 0 C0.99 0.33 1.98 0.66 3 1 C2.01 1 1.02 1 0 1 C0 0.67 0 0.34 0 0 Z " fill="#253445" transform="translate(397,837)"/>
<path d="M0 0 C0.99 0.495 0.99 0.495 2 1 C1.67 1.66 1.34 2.32 1 3 C0.67 2.01 0.34 1.02 0 0 Z " fill="#223244" transform="translate(304,786)"/>
<path d="M0 0 C0.99 0.495 0.99 0.495 2 1 C1.67 1.66 1.34 2.32 1 3 C0.67 2.01 0.34 1.02 0 0 Z " fill="#223142" transform="translate(249,733)"/>
<path d="M0 0 C1 4 1 4 1 4 Z " fill="#273949" transform="translate(168,536)"/>
<path d="M0 0 C1 4 1 4 1 4 Z " fill="#223244" transform="translate(838,399)"/>
<path d="M0 0 C0.99 0.495 0.99 0.495 2 1 C1.67 1.66 1.34 2.32 1 3 C0.67 2.01 0.34 1.02 0 0 Z " fill="#1D2D43" transform="translate(798,320)"/>
<path d="M0 0 C1 4 1 4 1 4 Z " fill="#233447" transform="translate(256,280)"/>
<path d="M0 0 C0.99 0 1.98 0 3 0 C2.67 0.66 2.34 1.32 2 2 C1.34 1.34 0.68 0.68 0 0 Z " fill="#203045" transform="translate(344,208)"/>
<path d="M0 0 C4 1 4 1 4 1 Z " fill="#223545" transform="translate(558,171)"/>
<path d="M0 0 C4 1 4 1 4 1 Z " fill="#243547" transform="translate(466,170)"/>
<path d="M0 0 C3 1 3 1 3 1 Z " fill="#263844" transform="translate(448,851)"/>
<path d="M0 0 C3 1 3 1 3 1 Z " fill="#263746" transform="translate(601,845)"/>
<path d="M0 0 C0.99 0.495 0.99 0.495 2 1 C1.01 1.495 1.01 1.495 0 2 C0 1.34 0 0.68 0 0 Z " fill="#253345" transform="translate(623,838)"/>
<path d="M0 0 C0.66 0.66 1.32 1.32 2 2 C1.34 2 0.68 2 0 2 C0 1.34 0 0.68 0 0 Z " fill="#243545" transform="translate(392,835)"/>
<path d="M0 0 C0.66 0 1.32 0 2 0 C1.67 0.66 1.34 1.32 1 2 C0.67 1.34 0.34 0.68 0 0 Z " fill="#203141" transform="translate(317,796)"/>
<path d="M0 0 C0.66 0 1.32 0 2 0 C1.67 0.66 1.34 1.32 1 2 C0.67 1.34 0.34 0.68 0 0 Z " fill="#213042" transform="translate(297,781)"/>
<path d="M0 0 C3 1 3 1 3 1 Z " fill="#243546" transform="translate(201,663)"/>
<path d="M0 0 C0.66 0 1.32 0 2 0 C1.67 0.66 1.34 1.32 1 2 C0.67 1.34 0.34 0.68 0 0 Z " fill="#253848" transform="translate(170,560)"/>
<path d="" fill="#263949" transform="translate(0,0)"/>
<path d="" fill="#263749" transform="translate(0,0)"/>
<path d="M0 0 C0.99 0.495 0.99 0.495 2 1 C1.01 1.495 1.01 1.495 0 2 C0 1.34 0 0.68 0 0 Z " fill="#243747" transform="translate(170,464)"/>
<path d="" fill="#1F3143" transform="translate(0,0)"/>
<path d="" fill="#223347" transform="translate(0,0)"/>
<path d="M0 0 C0.66 0.66 1.32 1.32 2 2 C1.34 2 0.68 2 0 2 C0 1.34 0 0.68 0 0 Z " fill="#223448" transform="translate(200,362)"/>
<path d="" fill="#213144" transform="translate(0,0)"/>
<path d="" fill="#1F3144" transform="translate(0,0)"/>
<path d="M0 0 C0.66 0.66 1.32 1.32 2 2 C1.34 2 0.68 2 0 2 C0 1.34 0 0.68 0 0 Z " fill="#1F3044" transform="translate(296,243)"/>
<path d="M0 0 C3 1 3 1 3 1 Z " fill="#213143" transform="translate(335,216)"/>
<path d="M0 0 C0.99 0.495 0.99 0.495 2 1 C1.01 1.495 1.01 1.495 0 2 C0 1.34 0 0.68 0 0 Z " fill="#1E3042" transform="translate(349,208)"/>
<path d="M0 0 C3 1 3 1 3 1 Z " fill="#203146" transform="translate(360,200)"/>
<path d="M0 0 C0.33 0.66 0.66 1.32 1 2 C0.34 1.67 -0.32 1.34 -1 1 C-0.67 0.67 -0.34 0.34 0 0 Z " fill="#213244" transform="translate(646,194)"/>
<path d="M0 0 C0.33 0.66 0.66 1.32 1 2 C0.34 1.67 -0.32 1.34 -1 1 C-0.67 0.67 -0.34 0.34 0 0 Z " fill="#223346" transform="translate(404,184)"/>
<path d="M0 0 C3 1 3 1 3 1 Z " fill="#243546" transform="translate(552,170)"/>
<path d="M0 0 C0.66 0 1.32 0 2 0 C1.67 0.66 1.34 1.32 1 2 C0.67 1.34 0.34 0.68 0 0 Z " fill="#233447" transform="translate(542,168)"/>
<path d="M0 0 C2 1 2 1 2 1 Z " fill="#273847" transform="translate(549,855)"/>
<path d="M0 0 C2 1 2 1 2 1 Z " fill="#253343" transform="translate(561,853)"/>
<path d="M0 0 C2 1 2 1 2 1 Z " fill="#253645" transform="translate(593,847)"/>
<path d="M0 0 C2 1 2 1 2 1 Z " fill="#253545" transform="translate(429,847)"/>
<path d="M0 0 C2 1 2 1 2 1 Z " fill="#263543" transform="translate(608,843)"/>
<path d="" fill="#233446" transform="translate(0,0)"/>
<path d="" fill="#233142" transform="translate(0,0)"/>
<path d="M0 0 C2 1 2 1 2 1 Z " fill="#213040" transform="translate(374,828)"/>
<path d="M0 0 C2 1 2 1 2 1 Z " fill="#213243" transform="translate(369,826)"/>
<path d="M0 0 C2 1 2 1 2 1 Z " fill="#223242" transform="translate(357,820)"/>
<path d="" fill="#223344" transform="translate(0,0)"/>
<path d="M0 0 C2 1 2 1 2 1 Z " fill="#233343" transform="translate(318,799)"/>
<path d="M0 0 C2 1 2 1 2 1 Z " fill="#233342" transform="translate(307,790)"/>
<path d="" fill="#223144" transform="translate(0,0)"/>
<path d="M0 0 C2 1 2 1 2 1 Z " fill="#233445" transform="translate(270,759)"/>
<path d="" fill="#243344" transform="translate(0,0)"/>
<path d="" fill="#243443" transform="translate(0,0)"/>
<path d="" fill="#263646" transform="translate(0,0)"/>
<path d="" fill="#223546" transform="translate(0,0)"/>
<path d="M0 0 C2 1 2 1 2 1 Z " fill="#253747" transform="translate(180,606)"/>
<path d="" fill="#243543" transform="translate(0,0)"/>
<path d="" fill="#243748" transform="translate(0,0)"/>
<path d="M0 0 C2 1 2 1 2 1 Z " fill="#25374B" transform="translate(176,594)"/>
<path d="" fill="#233447" transform="translate(0,0)"/>
<path d="" fill="#263747" transform="translate(0,0)"/>
<path d="" fill="#253746" transform="translate(0,0)"/>
<path d="" fill="#273A48" transform="translate(0,0)"/>
<path d="" fill="#253747" transform="translate(0,0)"/>
<path d="" fill="#243547" transform="translate(0,0)"/>
<path d="" fill="#263A4C" transform="translate(0,0)"/>
<path d="" fill="#24364A" transform="translate(0,0)"/>
<path d="" fill="#233645" transform="translate(0,0)"/>
<path d="" fill="#233646" transform="translate(0,0)"/>
<path d="" fill="#1F3041" transform="translate(0,0)"/>
<path d="M0 0 C2 1 2 1 2 1 Z " fill="#223448" transform="translate(200,360)"/>
<path d="" fill="#203146" transform="translate(0,0)"/>
<path d="M0 0 C2 1 2 1 2 1 Z " fill="#1E3147" transform="translate(219,330)"/>
<path d="M0 0 C2 1 2 1 2 1 Z " fill="#203043" transform="translate(231,312)"/>
<path d="" fill="#213347" transform="translate(0,0)"/>
<path d="M0 0 C2 1 2 1 2 1 Z " fill="#1C2D40" transform="translate(782,298)"/>
<path d="" fill="#213145" transform="translate(0,0)"/>
<path d="M0 0 C2 1 2 1 2 1 Z " fill="#203145" transform="translate(250,288)"/>
<path d="" fill="#203347" transform="translate(0,0)"/>
<path d="" fill="#1A2C43" transform="translate(0,0)"/>
<path d="M0 0 C2 1 2 1 2 1 Z " fill="#212E43" transform="translate(300,241)"/>
<path d="M0 0 C2 1 2 1 2 1 Z " fill="#1C2B41" transform="translate(722,240)"/>
<path d="" fill="#1F3045" transform="translate(0,0)"/>
<path d="M0 0 C2 1 2 1 2 1 Z " fill="#223146" transform="translate(305,235)"/>
<path d="M0 0 C2 1 2 1 2 1 Z " fill="#1D2D42" transform="translate(712,232)"/>
<path d="M0 0 C2 1 2 1 2 1 Z " fill="#213347" transform="translate(328,219)"/>
<path d="M0 0 C2 1 2 1 2 1 Z " fill="#1E2E42" transform="translate(694,218)"/>
<path d="M0 0 C2 1 2 1 2 1 Z " fill="#1F3143" transform="translate(656,200)"/>
<path d="M0 0 C2 1 2 1 2 1 Z " fill="#223547" transform="translate(376,195)"/>
<path d="M0 0 C2 1 2 1 2 1 Z " fill="#243548" transform="translate(378,194)"/>
<path d="" fill="#223245" transform="translate(0,0)"/>
<path d="M0 0 C2 1 2 1 2 1 Z " fill="#202F3F" transform="translate(614,184)"/>
<path d="M0 0 C2 1 2 1 2 1 Z " fill="#203245" transform="translate(406,184)"/>
<path d="M0 0 C2 1 2 1 2 1 Z " fill="#223546" transform="translate(598,179)"/>
<path d="M0 0 C2 1 2 1 2 1 Z " fill="#223343" transform="translate(593,178)"/>
<path d="M0 0 C2 1 2 1 2 1 Z " fill="#223545" transform="translate(426,178)"/>
<path d="" fill="#223547" transform="translate(0,0)"/>
<path d="" fill="#18211C" transform="translate(0,0)"/>
<path d="" fill="#263947" transform="translate(0,0)"/>
<path d="" fill="#263344" transform="translate(0,0)"/>
<path d="" fill="#253542" transform="translate(0,0)"/>
<path d="" fill="#293A49" transform="translate(0,0)"/>
<path d="" fill="#273A48" transform="translate(0,0)"/>
<path d="" fill="#283845" transform="translate(0,0)"/>
<path d="" fill="#283747" transform="translate(0,0)"/>
<path d="" fill="#293946" transform="translate(0,0)"/>
<path d="" fill="#273846" transform="translate(0,0)"/>
<path d="" fill="#263645" transform="translate(0,0)"/>
<path d="" fill="#1E2E3C" transform="translate(0,0)"/>
<path d="" fill="#263747" transform="translate(0,0)"/>
<path d="" fill="#273748" transform="translate(0,0)"/>
<path d="" fill="#253644" transform="translate(0,0)"/>
<path d="" fill="#293A49" transform="translate(0,0)"/>
<path d="" fill="#263643" transform="translate(0,0)"/>
<path d="" fill="#263544" transform="translate(0,0)"/>
<path d="" fill="#243244" transform="translate(0,0)"/>
<path d="" fill="#253745" transform="translate(0,0)"/>
<path d="" fill="#263544" transform="translate(0,0)"/>
<path d="" fill="#263647" transform="translate(0,0)"/>
<path d="" fill="#263546" transform="translate(0,0)"/>
<path d="" fill="#203345" transform="translate(0,0)"/>
<path d="" fill="#243445" transform="translate(0,0)"/>
<path d="" fill="#243344" transform="translate(0,0)"/>
<path d="" fill="#223244" transform="translate(0,0)"/>
<path d="" fill="#233544" transform="translate(0,0)"/>
<path d="" fill="#223345" transform="translate(0,0)"/>
<path d="" fill="#223544" transform="translate(0,0)"/>
<path d="" fill="#213146" transform="translate(0,0)"/>
<path d="" fill="#203043" transform="translate(0,0)"/>
<path d="" fill="#223544" transform="translate(0,0)"/>
<path d="" fill="#202F42" transform="translate(0,0)"/>
<path d="" fill="#243345" transform="translate(0,0)"/>
<path d="" fill="#223242" transform="translate(0,0)"/>
<path d="" fill="#223242" transform="translate(0,0)"/>
<path d="" fill="#213343" transform="translate(0,0)"/>
<path d="" fill="#213343" transform="translate(0,0)"/>
<path d="" fill="#203040" transform="translate(0,0)"/>
<path d="" fill="#243747" transform="translate(0,0)"/>
<path d="" fill="#233045" transform="translate(0,0)"/>
<path d="" fill="#213143" transform="translate(0,0)"/>
<path d="" fill="#243446" transform="translate(0,0)"/>
<path d="" fill="#263344" transform="translate(0,0)"/>
<path d="" fill="#223344" transform="translate(0,0)"/>
<path d="" fill="#222F3F" transform="translate(0,0)"/>
<path d="" fill="#223040" transform="translate(0,0)"/>
<path d="" fill="#212F3E" transform="translate(0,0)"/>
<path d="" fill="#233343" transform="translate(0,0)"/>
<path d="" fill="#253243" transform="translate(0,0)"/>
<path d="" fill="#203041" transform="translate(0,0)"/>
<path d="" fill="#213041" transform="translate(0,0)"/>
<path d="" fill="#223241" transform="translate(0,0)"/>
<path d="" fill="#243341" transform="translate(0,0)"/>
<path d="" fill="#1F3044" transform="translate(0,0)"/>
<path d="" fill="#233043" transform="translate(0,0)"/>
<path d="" fill="#273542" transform="translate(0,0)"/>
<path d="" fill="#22303F" transform="translate(0,0)"/>
<path d="" fill="#223243" transform="translate(0,0)"/>
<path d="" fill="#202F41" transform="translate(0,0)"/>
<path d="" fill="#213344" transform="translate(0,0)"/>
<path d="" fill="#243545" transform="translate(0,0)"/>
<path d="" fill="#1F2F44" transform="translate(0,0)"/>
<path d="" fill="#203145" transform="translate(0,0)"/>
<path d="" fill="#203043" transform="translate(0,0)"/>
<path d="" fill="#1F2F43" transform="translate(0,0)"/>
<path d="" fill="#213043" transform="translate(0,0)"/>
<path d="" fill="#212F43" transform="translate(0,0)"/>
<path d="" fill="#243646" transform="translate(0,0)"/>
<path d="" fill="#243143" transform="translate(0,0)"/>
<path d="" fill="#223546" transform="translate(0,0)"/>
<path d="" fill="#253445" transform="translate(0,0)"/>
<path d="" fill="#253546" transform="translate(0,0)"/>
<path d="" fill="#273547" transform="translate(0,0)"/>
<path d="" fill="#243446" transform="translate(0,0)"/>
<path d="" fill="#263544" transform="translate(0,0)"/>
<path d="" fill="#263648" transform="translate(0,0)"/>
<path d="" fill="#243548" transform="translate(0,0)"/>
<path d="" fill="#243447" transform="translate(0,0)"/>
<path d="" fill="#253547" transform="translate(0,0)"/>
<path d="" fill="#233247" transform="translate(0,0)"/>
<path d="" fill="#233544" transform="translate(0,0)"/>
<path d="" fill="#253648" transform="translate(0,0)"/>
<path d="" fill="#223447" transform="translate(0,0)"/>
<path d="" fill="#223648" transform="translate(0,0)"/>
<path d="" fill="#233447" transform="translate(0,0)"/>
<path d="" fill="#233545" transform="translate(0,0)"/>
<path d="" fill="#203144" transform="translate(0,0)"/>
<path d="" fill="#243647" transform="translate(0,0)"/>
<path d="" fill="#263643" transform="translate(0,0)"/>
<path d="" fill="#253544" transform="translate(0,0)"/>
<path d="" fill="#233245" transform="translate(0,0)"/>
<path d="" fill="#233548" transform="translate(0,0)"/>
<path d="" fill="#273A49" transform="translate(0,0)"/>
<path d="" fill="#213344" transform="translate(0,0)"/>
<path d="" fill="#243648" transform="translate(0,0)"/>
<path d="" fill="#243644" transform="translate(0,0)"/>
<path d="" fill="#253646" transform="translate(0,0)"/>
<path d="" fill="#273546" transform="translate(0,0)"/>
<path d="" fill="#263748" transform="translate(0,0)"/>
<path d="" fill="#253341" transform="translate(0,0)"/>
<path d="" fill="#263747" transform="translate(0,0)"/>
<path d="" fill="#233446" transform="translate(0,0)"/>
<path d="" fill="#253848" transform="translate(0,0)"/>
<path d="" fill="#223444" transform="translate(0,0)"/>
<path d="" fill="#273748" transform="translate(0,0)"/>
<path d="" fill="#243546" transform="translate(0,0)"/>
<path d="" fill="#233444" transform="translate(0,0)"/>
<path d="" fill="#26394B" transform="translate(0,0)"/>
<path d="" fill="#243446" transform="translate(0,0)"/>
<path d="" fill="#273849" transform="translate(0,0)"/>
<path d="" fill="#273847" transform="translate(0,0)"/>
<path d="" fill="#28384A" transform="translate(0,0)"/>
<path d="" fill="#263646" transform="translate(0,0)"/>
<path d="" fill="#263A4A" transform="translate(0,0)"/>
<path d="" fill="#273A4C" transform="translate(0,0)"/>
<path d="" fill="#263748" transform="translate(0,0)"/>
<path d="" fill="#293A4A" transform="translate(0,0)"/>
<path d="" fill="#223343" transform="translate(0,0)"/>
<path d="" fill="#263848" transform="translate(0,0)"/>
<path d="" fill="#27394A" transform="translate(0,0)"/>
<path d="" fill="#27394A" transform="translate(0,0)"/>
<path d="" fill="#283A4C" transform="translate(0,0)"/>
<path d="" fill="#253847" transform="translate(0,0)"/>
<path d="" fill="#253A4A" transform="translate(0,0)"/>
<path d="" fill="#273A4A" transform="translate(0,0)"/>
<path d="" fill="#243446" transform="translate(0,0)"/>
<path d="" fill="#27364A" transform="translate(0,0)"/>
<path d="" fill="#25374B" transform="translate(0,0)"/>
<path d="" fill="#253347" transform="translate(0,0)"/>
<path d="" fill="#263849" transform="translate(0,0)"/>
<path d="" fill="#283948" transform="translate(0,0)"/>
<path d="" fill="#233545" transform="translate(0,0)"/>
<path d="" fill="#243646" transform="translate(0,0)"/>
<path d="" fill="#223444" transform="translate(0,0)"/>
<path d="" fill="#243249" transform="translate(0,0)"/>
<path d="" fill="#233547" transform="translate(0,0)"/>
<path d="" fill="#243544" transform="translate(0,0)"/>
<path d="" fill="#213245" transform="translate(0,0)"/>
<path d="" fill="#223447" transform="translate(0,0)"/>
<path d="" fill="#223246" transform="translate(0,0)"/>
<path d="" fill="#243547" transform="translate(0,0)"/>
<path d="" fill="#253448" transform="translate(0,0)"/>
<path d="" fill="#243347" transform="translate(0,0)"/>
<path d="" fill="#223344" transform="translate(0,0)"/>
<path d="" fill="#233347" transform="translate(0,0)"/>
<path d="" fill="#223447" transform="translate(0,0)"/>
<path d="" fill="#213044" transform="translate(0,0)"/>
<path d="" fill="#233445" transform="translate(0,0)"/>
<path d="" fill="#223346" transform="translate(0,0)"/>
<path d="" fill="#213146" transform="translate(0,0)"/>
<path d="" fill="#213144" transform="translate(0,0)"/>
<path d="" fill="#1E3146" transform="translate(0,0)"/>
<path d="" fill="#213346" transform="translate(0,0)"/>
<path d="" fill="#203043" transform="translate(0,0)"/>
<path d="" fill="#223245" transform="translate(0,0)"/>
<path d="" fill="#1F3143" transform="translate(0,0)"/>
<path d="" fill="#213242" transform="translate(0,0)"/>
<path d="" fill="#1F3246" transform="translate(0,0)"/>
<path d="" fill="#223348" transform="translate(0,0)"/>
<path d="" fill="#213445" transform="translate(0,0)"/>
<path d="" fill="#203043" transform="translate(0,0)"/>
<path d="" fill="#212F47" transform="translate(0,0)"/>
<path d="" fill="#1F2F43" transform="translate(0,0)"/>
<path d="" fill="#1E2F44" transform="translate(0,0)"/>
<path d="" fill="#1F3147" transform="translate(0,0)"/>
<path d="" fill="#223146" transform="translate(0,0)"/>
<path d="" fill="#1F3244" transform="translate(0,0)"/>
<path d="" fill="#213145" transform="translate(0,0)"/>
<path d="" fill="#1E2D42" transform="translate(0,0)"/>
<path d="" fill="#1E2C42" transform="translate(0,0)"/>
<path d="" fill="#1C2D40" transform="translate(0,0)"/>
<path d="" fill="#1F2F41" transform="translate(0,0)"/>
<path d="" fill="#203043" transform="translate(0,0)"/>
<path d="" fill="#1F2F42" transform="translate(0,0)"/>
<path d="" fill="#212F42" transform="translate(0,0)"/>
<path d="" fill="#22344A" transform="translate(0,0)"/>
<path d="" fill="#213041" transform="translate(0,0)"/>
<path d="" fill="#1D2C40" transform="translate(0,0)"/>
<path d="" fill="#1C2B40" transform="translate(0,0)"/>
<path d="" fill="#1F2E43" transform="translate(0,0)"/>
<path d="" fill="#1B2B3F" transform="translate(0,0)"/>
<path d="" fill="#1F2C42" transform="translate(0,0)"/>
<path d="" fill="#1C2F42" transform="translate(0,0)"/>
<path d="" fill="#1D2C41" transform="translate(0,0)"/>
<path d="" fill="#1E3044" transform="translate(0,0)"/>
<path d="" fill="#19293C" transform="translate(0,0)"/>
<path d="" fill="#1F3145" transform="translate(0,0)"/>
<path d="" fill="#203142" transform="translate(0,0)"/>
<path d="" fill="#1F3246" transform="translate(0,0)"/>
<path d="" fill="#223046" transform="translate(0,0)"/>
<path d="" fill="#223244" transform="translate(0,0)"/>
<path d="" fill="#1C2F42" transform="translate(0,0)"/>
<path d="" fill="#202F44" transform="translate(0,0)"/>
<path d="" fill="#1A2A41" transform="translate(0,0)"/>
<path d="" fill="#202D41" transform="translate(0,0)"/>
<path d="" fill="#202F45" transform="translate(0,0)"/>
<path d="" fill="#1E2F42" transform="translate(0,0)"/>
<path d="" fill="#1E2B40" transform="translate(0,0)"/>
<path d="" fill="#203347" transform="translate(0,0)"/>
<path d="" fill="#1F3344" transform="translate(0,0)"/>
<path d="" fill="#1D2F41" transform="translate(0,0)"/>
<path d="" fill="#1E2D41" transform="translate(0,0)"/>
<path d="" fill="#1A283D" transform="translate(0,0)"/>
<path d="" fill="#202E42" transform="translate(0,0)"/>
<path d="" fill="#223346" transform="translate(0,0)"/>
<path d="" fill="#1F3044" transform="translate(0,0)"/>
<path d="" fill="#223247" transform="translate(0,0)"/>
<path d="" fill="#1E2E43" transform="translate(0,0)"/>
<path d="" fill="#1E2F44" transform="translate(0,0)"/>
<path d="" fill="#203245" transform="translate(0,0)"/>
<path d="" fill="#1B2C40" transform="translate(0,0)"/>
<path d="" fill="#223345" transform="translate(0,0)"/>
<path d="" fill="#213343" transform="translate(0,0)"/>
<path d="" fill="#1E3245" transform="translate(0,0)"/>
<path d="" fill="#213246" transform="translate(0,0)"/>
<path d="" fill="#1F3047" transform="translate(0,0)"/>
<path d="" fill="#213244" transform="translate(0,0)"/>
<path d="" fill="#213446" transform="translate(0,0)"/>
<path d="" fill="#223448" transform="translate(0,0)"/>
<path d="" fill="#1F3244" transform="translate(0,0)"/>
<path d="" fill="#203044" transform="translate(0,0)"/>
<path d="" fill="#233345" transform="translate(0,0)"/>
<path d="" fill="#203142" transform="translate(0,0)"/>
<path d="" fill="#233445" transform="translate(0,0)"/>
<path d="" fill="#1F2E42" transform="translate(0,0)"/>
<path d="" fill="#243544" transform="translate(0,0)"/>
<path d="" fill="#223545" transform="translate(0,0)"/>
<path d="" fill="#243646" transform="translate(0,0)"/>
<path d="" fill="#243345" transform="translate(0,0)"/>
<path d="" fill="#243847" transform="translate(0,0)"/>
<path d="" fill="#24374A" transform="translate(0,0)"/>
<path d="" fill="#243646" transform="translate(0,0)"/>
<path d="" fill="#243548" transform="translate(0,0)"/>
<path d="" fill="#243849" transform="translate(0,0)"/>
<path d="" fill="#1E2E3D" transform="translate(0,0)"/>
<path d="" fill="#233543" transform="translate(0,0)"/>
<path d="" fill="#233547" transform="translate(0,0)"/>
<path d="" fill="#253746" transform="translate(0,0)"/>
</svg>
